<mxfile host="app.diagrams.net" modified="2023-01-26T23:34:49.424Z" agent="5.0 (Windows NT 10.0; Win64; x64) AppleWebKit/537.36 (KHTML, like Gecko) Chrome/109.0.0.0 Safari/537.36" etag="nqMGmAOJSC4E8ZYTpih6" version="20.8.11" type="github">
  <diagram name="ページ1" id="LIHSjN_EJBTYm-i6890q">
    <mxGraphModel dx="1434" dy="788" grid="1" gridSize="10" guides="1" tooltips="1" connect="1" arrows="1" fold="1" page="1" pageScale="1" pageWidth="827" pageHeight="1169" math="0" shadow="0">
      <root>
        <mxCell id="0" />
        <mxCell id="1" parent="0" />
        <mxCell id="5saQMGfEtWEiBKBCJOgw-1" value="" style="shape=image;verticalLabelPosition=bottom;labelBackgroundColor=default;verticalAlign=top;aspect=fixed;imageAspect=0;image=data:image/png,iVBORw0KGgoAAAANSUhEUgAACDQAAAVQCAIAAAAxhA8SAAAgAElEQVR4AezBsQ2EMBBE0ZnQInZLVOHytgr6Ip6TiJDQppf4v+fMIQAAAAAAAAAAgH9x5hAAAAAAAAAAAMC/OHMIAAAAAAAAAADgX5w5BAAAAAAAAAAA8C/OHAIAAAAAAAAAAPgXZw69uCwAAIBHVtRwWQC2lPNWw9chAFvKihouCwAA4MOZQy8uCwAA4JEVNVwWgC3lvNXwdQjAlrKihssCAAD4cObQi8sCAAB4ZEUNlwVgSzlvNXwdArClrKjhsgAAAD6cOfTisgAAAB5ZUcNlAdhSzlsNX4cAbCkrargsAACAD2cOvbgsAACAR1bUcFkAtpTzVsPXIQBbyooaLgsAAODDmUMvLgsAAOCRFTVcFoAt5bzV8HUIwJayoobLAgAA+HDm0IvLAgAAeGRFDZcFYEs5bzV8HQKwpayo4bIAAAA+nDn04rIAAAAeWVHDZQHYUs5bDV+HAGwpK2q4LAAAgA9nDr24LAAAgEdW1HBZALaU81bD1yEAW8qKGi4LAADgw5lDLy4LAADgkRU1XBaALeW81fB1CMCWsqKGywIAAPhw5tCLywIAAHhkRQ2XBWBLOW81fB0CsKWsqOGyAAAAPpw59OKyAAAAHllRw2UB2FLOWw1fhwBsKStquCwAAIAPZw69uCwAAIBHVtRwWQC2lPNWw9chAFvKihouCwAA4MOZQy8uCwAA4JEVNVwWgC3lvNXwdQjAlrKihssCAAD4cObQi8sCAAB4ZEUNlwVgSzlvNXwdArClrKjhsgAAAD6cOfTisgAAAB5ZUcNlAdhSzlsNX4cAbCkrargsAACAD2cOvbgsAACAR1bUcFkAtpTzVsPXIQBbyooaLgsAAODDmUMvLgsAAOCRFTVcFoAt5bzV8HUIwJayoobLAgAA+HDm0IvLAgAAeGRFDZcFYEs5bzV8HQKwpayo4bIAAAA+nDn04rIAAAAeWVHDZQHYUs5bDV+HAGwpK2q4LAAAgA9nDr24LAAAgEdW1HBZALaU81bD1yEAW8qKGi4LAADgw5lDLy4LAADgkRU1XBaALeW81fB1CMCWsqKGywIAAPhw5tCLywIAAHhkRQ2XBWBLOW81fB0CsKWsqOGyAAAAPpw59OKyAAAAHllRw2UB2FLOWw1fhwBsKStquCwAAIAPZw69uCwAAIBHVtRwWQC2lPNWw9chAFvKihouCwAA4MOZQy8uCwAA4JEVNVwWgC3lvNXwdQjAlrKihssCAAD4cObQi8sCAAB4ZEUNlwVgSzlvNXwdArClrKjhsgAAAD6cOfTisgAAAB5ZUcNlAdhSzlsNX4cAbCkrargsAACAD2cOvbgsAACAR1bUcFkAtpTzVsPXIQBbyooaLgsAAODDmUMvLgsAAOCRFTVcFoAt5bzV8HUIwJayoobLAgAA+HDm0IvLAgAAeGRFDZcFYEs5bzV8HQKwpayo4bIAAAA+nDn04rIAAAAeWVHDZQHYUs5bDV+HAGwpK2q4LAAAgA9nDr24LAAAgEdW1HBZALaU81bD1yEAW8qKGi4LAADgw5lDLy4LAADgkRU1XBaALeW81fB1CMCWsqKGywIAAPhw5tCLywIAAHhkRQ2XBWBLOW81fB0CsKWsqOGyAAAAPpw59OKyAAAAHllRw2UB2FLOWw1fhwBsKStquCwAAIAPZw69uCwAAIBHVtRwWQC2lPNWw9chAFvKihouCwAA4MOZQy8uCwAA4JEVNVwWgC3lvNXwdQjAlrKihssCAAD4cObQi8sCAAB4ZEUNlwVgSzlvNXwdArClrKjhsgAAAD6cOfTisgAAAB5ZUcNlAdhSzlsNX4cAbCkrargsAACAD2cOvbgsAACAR1bUcFkAtpTzVsPXIQBbyooaLgsAAODDmUMvLgsAAOCRFTVcFoAt5bzV8HUIwJayoobLAgAA+HDm0IvLAgAAeGRFDZcFYEs5bzV8HQKwpayo4bIAAAA+nDn04rIAAAAeWVHDZQHYUs5bDV+HAGwpK2q4LAAAgA9nDr24LAAAgEdW1HBZALaU81bD1yEAW8qKGi4LAADgw5lDLy4LAADgkRU1XBaALeW81fB1CMCWsqKGywIAAPhw5tCLywIAAHhkRQ2XBWBLOW81fB0CsKWsqOGyAAAAPpw59OKyAAAAHllRw2UB2FLOWw1fhwBsKStquCwAAIAPZw69uCwAAIBHVtRwWQC2lPNWw9chAFvKihouCwAA4MOZQy8uCwAA4JEVNVwWgC3lvNXwdQjAlrKihssCAAD4cObQi8sCAAB4ZEUNlwVgSzlvNXwdArClrKjhsgAAAD6cOfTisgAAAB5ZUcNlAdhSzlsNX4cAbCkrargsAACAD2cOvbgsAACAR1bUcFkAtpTzVsPXIQBbyooaLgsAAODDmUMvLgsAAOCRFTVcFoAt5bzV8HUIwJayoobLAgAA+HDm0IvLAgAAeGRFDZcFYEs5bzV8HQKwpayo4bIAAAA+nDn04rIAAAAeWVHDZQHYUs5bDV+HAGwpK2q4LAAAgA9nDr24LAAAgEdW1HBZALaU81bD1yEAW8qKGi4LAADgw5lDLy4LAADgkRU1XBaALeW81fB1CMCWsqKGywIAAPhw5tCLywIAAHhkRQ2XBWBLOW81fB0CsKWsqOGyAAAAPpw59OKyAAAAHllRw2UB2FLOWw1fhwBsKStquCwAAIAPZw69uCwAAIBHVtRwWQC2lPNWw9chAFvKihouCwAA4MOZQy8uCwAA4JEVNVwWgC3lvNXwdQjAlrKihssCAAD4cObQi8sCAAB4ZEUNlwVgSzlvNXwdArClrKjhsgAAAD6cOfTisgAAAB5ZUcNlAdhSzlsNX4cAbCkrargsAACAD2cOvbgsAACAR1bUcFkAtpTzVsPXIQBbyooaLgsAAODDmUMvLgsAAOCRFTVcFoAt5bzV8HUIwJayoobLAgAA+HDm0IvLAgAAeGRFDZcFYEs5bzV8HQKwpayo4bIAAAA+nDn04rIAAAAeWVHDZQHYUs5bDV+HAGwpK2q4LAAAgA9nDr24LAAAgEdW1HBZALaU81bD1yEAW8qKGi4LAADgw5lDLy4LAADgkRU1XBaALeW81fB1CMCWsqKGywIAAPhw5tCLywIAAHhkRQ2XBWBLOW81fB0CsKWsqOGyAAAAPpw59OKyAAAAHllRw2UB2FLOWw1fhwBsKStquCwAAIAPZw69uCwAAIBHVtRwWQC2lPNWw9chAFvKihouCwAA4MOZQy8uCwAA4JEVNVwWgC3lvNXwdQjAlrKihssCAAD4cObQi8sCAAB4ZEUNlwVgSzlvNXwdArClrKjhsgAAAD6cOfTisgAAAB5ZUcNlAdhSzlsNX4cAbCkrargsAACAD2cOvbgsAACAR1bUcFkAtpTzVsPXIQBbyooaLgsAAODDmUMvLgsAAOCRFTVcFoAt5bzV8HUIwJayoobLAgAA+HDm0IvLAgAAeGRFDZcFYEs5bzV8HQKwpayo4bIAAAA+nDn04rIAAAAeWVHDZQHYUs5bDV+HAGwpK2q4LAAAgA9nDr24LAAAgEdW1HBZALaU81bD1yEAW8qKGi4LAADgw5lDLy4LAADgkRU1XBaALeW81fB1CMCWsqKGywIAAPhw5tCLywIAAHhkRQ2XBWBLOW81fB0CsKWsqOGyAAAAPpw59OKyAAAAHllRw2UB2FLOWw1fhwBsKStquCwAAIAPZw69uCwAAIBHVtRwWQC2lPNWw9chAFvKihouCwAA4MOZQy8uCwAA4JEVNVwWgC3lvNXwdQjAlrKihssCAAD4cObQi8sCAAB4ZEUNlwVgSzlvNXwdArClrKjhsgAAAD6cOfTisgAAAB5ZUcNlAdhSzlsNX4cAbCkrargsAACAD2cOvbgsAACAR1bUcFkAtpTzVsPXIQBbyooaLgsAAODDmUMvLgsAAOCRFTVcFoAt5bzV8HUIwJayoobLAgAA+HDm0IvLAgAAeGRFDZcFYEs5bzV8HQKwpayo4bIAAAA+nDn04rIAAAAeWVHDZQHYUs5bDV+HAGwpK2q4LAAAgA9nDr24LAAAgEdW1HBZALaU81bD1yEAW8qKGi4LAADgw5lDLy4LAADgkRU1XBaALeW81fB1CMCWsqKGywIAAPhw5tCLywIAAHhkRQ2XBWBLOW81fB0CsKWsqOGyAAAAPpw59OKyAAAAHllRw2UB2FLOWw1fhwBsKStquCwAAIAPZw69uCwAAIBHVtRwWQC2lPNWw9chAFvKihouCwAA4MOZQy8uCwAA4JEVNVwWgC3lvNXwdQjAlrKihssCAAD4cObQi8sCAAB4ZEUNlwVgSzlvNXwdArClrKjhsgAAAD6cOfTisgAAAB5ZUcNlAdhSzlsNX4cAbCkrargsAACAD2cOvbgsAACAR1bUcFkAtpTzVsPXIQBbyooaLgsAAODDmUMvLgsAAOCRFTVcFoAt5bzV8HUIwJayoobLAgAA+HDm0IvLAgAAeGRFDZcFYEs5bzV8HQKwpayo4bIAAAA+nDn04rIAAAAeWVHDZQHYUs5bDV+HAGwpK2q4LAAAgA9nDr24LAAAgEdW1HBZALaU81bD1yEAW8qKGi4LAADgw5lDLy4LAADgkRU1XBaALeW81fB1CMCWsqKGywIAAPhw5tCLywIAAHhkRQ2XBWBLOW81fB0CsKWsqOGyAAAAPpw59OKyAAAAHllRw2UB2FLOWw1fhwBsKStquCwAAIAPZw69uCwAAIBHVtRwWQC2lPNWw9chAFvKihouCwAA4MOZQy8uCwAA4JEVNVwWgC3lvNXwdQjAlrKihssCAAD4cObQi8sCAAB4ZEUNlwVgSzlvNXwdArClrKjhsgAAAD6cOfTisgAAAB5ZUcNlAdhSzlsNX4cAbCkrargsAACAD2cOvbgsAACAR1bUcFkAtpTzVsPXIQBbyooaLgsAAODDmUMvLgsAAOCRFTVcFoAt5bzV8HUIwJayoobLAgAA+HDm0IvLAgAAeGRFDZcFYEs5bzV8HQKwpayo4bIAAAA+nDn04rIAAAAeWVHDZQHYUs5bDV+HAGwpK2q4LAAAgA9nDr24LAAAgEdW1HBZALaU81bD1yEAW8qKGi4LAADgw5lDLy4LAADgkRU1XBaALeW81fB1CMCWsqKGywIAAPhw5tCLywIAAHhkRQ2XBWBLOW81fB0CsKWsqOGyAAAAPpw59OKyAAAAHllRw2UB2FLOWw1fhwBsKStquCwAAIAPZw69uCwAAIBHVtRwWQC2lPNWw9chAFvKihouCwAA4MOZQy8uCwAA4JEVNVwWgC3lvNXwdQjAlrKihssCAAD4cObQi8sCAAB4ZEUNlwVgSzlvNXwdArClrKjhsgAAAD6cOfTisgAAAB5ZUcNlAdhSzlsNX4cAbCkrargsAACAD2cOvbgsAACAR1bUcFkAtpTzVsPXIQBbyooaLgsAAODDmUMvLgsAAOCRFTVcFoAt5bzV8HUIwJayoobLAgAA+HDm0IvLAgAAeGRFDZcFYEs5bzV8HQKwpayo4bIAAAA+nDn04rIAAAAeWVHDZQHYUs5bDV+HAGwpK2q4LAAAgA9nDr24LAAAgEdW1HBZALaU81bD1yEAW8qKGi4LAADgw5lDLy4LAADgkRU1XBaALeW81fB1CMCWsqKGywIAAPhw5tCLywIAAHhkRQ2XBWBLOW81fB0CsKWsqOGyAAAAPpw59OKyAAAAHllRw2UB2FLOWw1fhwBsKStquCwAAIAPZw69uCwAAIBHVtRwWQC2lPNWw9chAFvKihouCwAA4MOZQy8uCwAA4JEVNVwWgC3lvNXwdQjAlrKihssCAAD4cObQi8sCAAB4ZEUNlwVgSzlvNXwdArClrKjhsgAAAD6cOfTisgAAAB5ZUcNlAdhSzlsNX4cAbCkrargsAACAD2cOvbgsAACAR1bUcFkAtpTzVsPXIQBbyooaLgsAAODDmUMvLgsAAOCRFTVcFoAt5bzV8HUIwJayoobLAgAA+HDm0IvLAgAAeGRFDZcFYEs5bzV8HQKwpayo4bIAAAA+nDn04rIAAAAeWVHDZQHYUs5bDV+HAGwpK2q4LAAAgA9nDr24LAAAgEdW1HBZALaU81bD1yEAW8qKGi4LAADgw5lDLy4LAADgkRU1XBaALeW81fB1CMCWsqKGywIAAPhw5tCLywIAAHhkRQ2XBWBLOW81fB0CsKWsqOGyAAAAPpw59OKyAAAAHllRw2UB2FLOWw1fhwBsKStquCwAAIAPZw69uCwAAIBHVtRwWQC2lPNWw9chAFvKihouCwAA4MOZQy8uCwAA4JEVNVwWgC3lvNXwdQjAlrKihssCAAD4cObQi8sCAAB4ZEUNlwVgSzlvNXwdArClrKjhsgAAAD6cOfTisgAAAB5ZUcNlAdhSzlsNX4cAbCkrargsAACAD2cOvbgsAACAR1bUcFkAtpTzVsPXIQBbyooaLgsAAODDmUMvLgsAAOCRFTVcFoAt5bzV8HUIwJayoobLAgAA+HDm0IvLAgAAeGRFDZcFYEs5bzV8HQKwpayo4bIAAAA+nDn04rIAAAAeWVHDZQHYUs5bDV+HAGwpK2q4LAAAgA9nDr24LAAAgEdW1HBZALaU81bD1yEAW8qKGi4LAADgw5lDLy4LAADgkRU1XBaALeW81fB1CMCWsqKGywIAAPhw5tCLywIAAHhkRQ2XBWBLOW81fB0CsKWsqOGyAAAAPpw59OKyAAAAHllRw2UB2FLOWw1fhwBsKStquCwAAIAPZw69uCwAAIBHVtRwWQC2lPNWw9chAFvKihouCwAA4MOZQy8uCwAA4JEVNVwWgC3lvNXwdQjAlrKihssCAAD4cObQi8sCAAB4ZEUNlwVgSzlvNXwdArClrKjhsgAAAD6cOfTisgAAAB5ZUcNlAdhSzlsNX4cAbCkrargsAACAD2cOvbgsAACAR1bUcFkAtpTzVsPXIQBbyooaLgsAAODDmUMvLgsAAOCRFTVcFoAt5bzV8HUIwJayoobLAgAA+HDm0IvLAgAAeGRFDZcFYEs5bzV8HQKwpayo4bIAAAA+nDn04rIAAAAeWVHDZQHYUs5bDV+HAGwpK2q4LAAAgA9nDr24LAAAgEdW1HBZALaU81bD1yEAW8qKGi4LAADgw5lDLy4LAADgkRU1XBaALeW81fB1CMCWsqKGywIAAPhw5tCLywIAAHhkRQ2XBWBLOW81fB0CsKWsqOGyAAAAPpw59OKyAAAAHllRw2UB2FLOWw1fhwBsKStquCwAAIAPZw69uCwAAIBHVtRwWQC2lPNWw9chAFvKihouCwAA4MOZQy8uCwAA4JEVNVwWgC3lvNXwdQjAlrKihssCAAD4cObQi8sCAAB4ZEUNlwVgSzlvNXwdArClrKjhsgAAAD6cOfTisgAAAB5ZUcNlAdhSzlsNX4cAbCkrargsAACAD2cOvbgsAACAR1bUcFkAtpTzVsPXIQBbyooaLgsAAODDmUMvLgsAAOCRFTVcFoAt5bzV8HUIwJayoobLAgAA+HDm0IvLAgAAeGRFDZcFYEs5bzV8HQKwpayo4bIAAAA+nDn04rIAAAAeWVHDZQHYUs5bDV+HAGwpK2q4LAAAgA9nDr24LAAAgEdW1HBZALaU81bD1yEAW8qKGi4LAADgw5lDLy4LAADgkRU1XBaALeW81fB1CMCWsqKGywIAAPhw5tCLywIAAHhkRQ2XBWBLOW81fB0CsKWsqOGyAAAAPpw59OKyAAAAHllRw2UB2FLOWw1fhwBsKStquCwAAIAPZw69uCwAAIBHVtRwWQC2lPNWw9chAFvKihouCwAA4MOZQy8uCwAA4JEVNVwWgC3lvNXwdQjAlrKihssCAAD4cObQi8sCAAB4ZEUNlwVgSzlvNXwdArClrKjhsgAAAD6cOfTisgAAAB5ZUcNlAdhSzlsNX4cAbCkrargsAACAD2cOvbgsAACAR1bUcFkAtpTzVsPXIQBbyooaLgsAAODDmUMvLgsAAOCRFTVcFoAt5bzV8HUIwJayoobLAgAA+HDm0IvLAgAAeGRFDZcFYEs5bzV8HQKwpayo4bIAAAA+nDn04rIAAAAeWVHDZQHYUs5bDV+HAGwpK2q4LAAAgA9nDr24LAAAgEdW1HBZALaU81bD1yEAW8qKGi4LAADgw5lDLy4LAADgkRU1XBaALeW81fB1CMCWsqKGywIAAPhw5tCLywIAAHhkRQ2XBWBLOW81fB0CsKWsqOGyAAAAPpw59OKyAAAAHllRw2UB2FLOWw1fhwBsKStquCwAAIAPZw69uCwAAIBHVtRwWQC2lPNWw9chAFvKihouCwAA4MOZQy8uCwAA4JEVNVwWgC3lvNXwdQjAlrKihssCAAD4cObQi8sCAAB4ZEUNlwVgSzlvNXwdArClrKjhsgAAAD6cOfTisgAAAB5ZUcNlAdhSzlsNX4cAbCkrargsAACAD2cOvbgsAACAR1bUcFkAtpTzVsPXIQBbyooaLgsAAODDmUMvLgsAAOCRFTVcFoAt5bzV8HUIwJayoobLAgAA+HDm0IvLAgAAeGRFDZcFYEs5bzV8HQKwpayo4bIAAAA+nDn04rIAAAAeWVHDZQHYUs5bDV+HAGwpK2q4LAAAgA9nDr24LAAAgEdW1HBZALaU81bD1yEAW8qKGi4LAADgw5lDLy4LAADgkRU1XBaALeW81fB1CMCWsqKGywIAAPhw5tCLywIAAHhkRQ2XBWBLOW81fB0CsKWsqOGyAAAAPpw59OKyAAAAHllRw2UB2FLOWw1fhwBsKStquCwAAIAPZw69uCwAAIBHVtRwWQC2lPNWw9chAFvKihouCwAA4MOZQy8uCwAA4JEVNVwWgC3lvNXwdQjAlrKihssCAAD4cObQi8sCAAB4ZEUNlwVgSzlvNXwdArClrKjhsgAAAD6cOfTisgAAAB5ZUcNlAdhSzlsNX4cAbCkrargsAACAD2cOvbgsAACAR1bUcFkAtpTzVsPXIQBbyooaLgsAAODDmUMvLgsAAOCRFTVcFoAt5bzV8HUIwJayoobLAgAA+HDm0IvLAgAAeGRFDZcFYEs5bzV8HQKwpayo4bIAAAA+nDn04rIAAAAeWVHDZQHYUs5bDV+HAGwpK2q4LAAAgA9nDr24LAAAgEdW1HBZALaU81bD1yEAW8qKGi4LAADgw5lDLy4LAADgkRU1XBaALeW81fB1CMCWsqKGywIAAPhw5tCLywIAAHhkRQ2XBWBLOW81fB0CsKWsqOGyAAAAPpw59OKyAAAAHllRw2UB2FLOWw1fhwBsKStquCwAAIAPZw69uCwAAIBHVtRwWQC2lPNWw9chAFvKihouCwAA4MOZQy8uCwAA4JEVNVwWgC3lvNXwdQjAlrKihssCAAD4cObQi8sCAAB4ZEUNlwVgSzlvNXwdArClrKjhsgAAAD6cOfTisgAAAB5ZUcNlAdhSzlsNX4cAbCkrargsAACAD2cOvbgsAACAR1bUcFkAtpTzVsPXIQBbyooaLgsAAODDmUMvLgsAAOCRFTVcFoAt5bzV8HUIwJayoobLAgAA+HDm0IvLAgAAeGRFDZcFYEs5bzV8HQKwpayo4bIAAAA+nDn04rIAAAAeWVHDZQHYUs5bDV+HAGwpK2q4LAAAgA9nDr24LAAAgEdW1HBZALaU81bD1yEAW8qKGi4LAADgw5lDLy4LAADgkRU1XBaALeW81fB1CMCWsqKGywIAAPhw5tCLywIAAHhkRQ2XBWBLOW81fB0CsKWsqOGyAAAAPpw59OKyAAAAHllRw2UB2FLOWw1fhwBsKStquCwAAIAPZw69uCwAAIBHVtRwWQC2lPNWw9chAFvKihouCwAA4MOZQy8uCwAA4JEVNVwWgC3lvNXwdQjAlrKihssCAAD4cObQi8sCAAB4ZEUNlwVgSzlvNXwdArClrKjhsgAAAD6cOfTisgAAAB5ZUcNlAdhSzlsNX4cAbCkrargsAACAD2cOvbgsAACAR1bUcFkAtpTzVsPXIQBbyooaLgsAAODDmUMvLgsAAOCRFTVcFoAt5bzV8HUIwJayoobLAgAA+HDm0IvLAgAAeGRFDZcFYEs5bzV8HQKwpayo4bIAAAA+nDn04rIAAAAeWVHDZQHYUs5bDV+HAGwpK2q4LAAAgA9nDr24LAAAgEdW1HBZALaU81bD1yEAW8qKGi4LAADgw5lDLy4LAADgkRU1XBaALeW81fB1CMCWsqKGywIAAPhw5tCLywIAAHhkRQ2XBWBLOW81fB0CsKWsqOGyAAAAPpw59OKyAAAAHllRw2UB2FLOWw1fhwBsKStquCwAAIAPZw69uCwAAIBHVtRwWQC2lPNWw9chAFvKihouCwAA4MOZQy8uCwAA4JEVNVwWgC3lvNXwdQjAlrKihssCAAD4cObQi8sCAAB4ZEUNlwVgSzlvNXwdArClrKjhsgAAAD6cOfTisgAAAB5ZUcNlAdhSzlsNX4cAbCkrargsAACAD2cOvbgsAACAR1bUcFkAtpTzVsPXIQBbyooaLgsAAODDmUMvLgsAAOCRFTVcFoAt5bzV8HUIwJayoobLAgAA+HDm0IvLAgAAeGRFDZcFYEs5bzV8HQKwpayo4bIAAAA+nDn04rIAAAAeWVHDZQHYUs5bDV+HAGwpK2q4LAAAgA9nDr24LAAAgEdW1HBZALaU81bD1yEAW8qKGi4LAADgw5lDLy4LAADgkRU1XBaALeW81fB1CMCWsqKGywIAAPhw5tCLywIAAHhkRQ2XBWBLOW81fB0CsKWsqOGyAAAAPpw59OKyAAAAHllRw2UB2FLOWw1fhwBsKStquCwAAIAPZw69uCwAAIBHVtRwWQC2lPNWw9chAFvKihouCwAA4MOZQy8uCwAA4JEVNVwWgC3lvNXwdQjAlrKihssCAAD4cObQi8sCAAB4ZEUNlwVgSzlvNXwdArClrKjhsgAAAJc0yHQAACAASURBVD6cOfTisgAAAB5ZUcNlAdhSzlsNX4cAbCkrargsAACAD2cOvbgsAACAR1bUcFkAtpTzVsPXIQBbyooaLgsAAODDmUMvLgsAAOCRFTVcFoAt5bzV8HUIP/bgGAV3nFuiaFVoFHtKGoWGp1FoSDdXp/WgI8PlBP4fNHzWXgs4UkZU8LQAAAD+4tyXHjwtAACAf2VEBU8LwJHStwpeTQCOlBEVPC0AAIC/OPelB08LAADgXxlRwdMCcKT0rYJXE4AjZUQFTwsAAOAvzn3pwdMCAAD4V0ZU8LQAHCl9q+DVBOBIGVHB0wIAAPiLc1968LQAAAD+lREVPC0AR0rfKng1AThSRlTwtAAAAP7i3JcePC0AAIB/ZUQFTwvAkdK3Cl5NAI6UERU8LQAAgL8496UHTwsAAOBfGVHB0wJwpPStglcTgCNlRAVPCwAA4C/OfenB0wIAAPhXRlTwtAAcKX2r4NUE4EgZUcHTAgAA+ItzX3rwtAAAAP6VERU8LQBHSt8qeDUBOFJGVPC0AAAA/uLclx48LQAAgH9lRAVPC8CR0rcKXk0AjpQRFTwtAACAvzj3pac//wjAV3g1AcD/Q0ZU8LQAHCl9q+DVBOBIGVHB0wKA/4f0LQBf5NyXnv78IwDf4tUEAP+TjKjgaQE4UvpWwasJwJEyooKnBQD/k/QtAN/l3Jee/vwjAJ/j1QQA72VEBU8LwJHStwpeTQCOlBEVPC0AeC99C8CnOfelpz//CMDneDUBwHsZUcHTAnCk9K2CVxOAI2VEBU8LAN5L3wLwac596enPPwLwRV5NAPBSRlTwtAAcKX2r4NUE4EgZUcHTAoCX0rcAfJ1zX3r6848AfJFXEwC8lBEVPC0AR0rfKng1AThSRlTwtADgpfQtAF/n3Jee/vwjAF/k1QQAL2VEBU8LwJHStwpeTQCOlBEVPC0AeCl9C8DXOfelpz//CMAXeTUBwEsZUcHTAnCk9K2CVxOAI2VEBU8LAF5K3wLwdc596enPPwLwRV5NAPBSRlTwtAAcKX2r4NUE4EgZUcHTAoCX0rcAfJ1zX3rwtAD8rPStglcTALyUERU8LQBHSt8qeDUBOFJGVPC0AOCl9K2CVxOAT3DuSw+eFoCflb5V8GoCgJcyooKnBeBI6VsFryYAR8qICp4WALyUvlXwagLwCc596cHTAvCz0rcKXk0A8FJGVPC0ABwpfavg1QTgSBlRwdMCgJfStwpeTQA+wbkvPXhaAH5W+lbBqwkAXsqICp4WgCOlbxW8mgAcKSMqeFoA8FL6VsGrCcAnOPelB08LwM9K3yp4NQHASxlRwdMCcKT0rYJXE4AjZUQFTwsAXkrfKng1AfgE57704GkB+FnpWwWvJgB4KSMqeFoAjpS+VfBqAnCkjKjgaQHAS+lbBa8mAJ/g3JcePC0APyt9q+DVBAAvZUQFTwvAkdK3Cl5NAI6UERU8LQB4KX2r4NUE4BOc+9KDpwXgZ6VvFbyaAOCljKjgaQE4UvpWwasJwJEyooKnBQAvpW8VvJoAfIJzX3rwtAD8rPStglcTALyUERU8LQBHSt8qeDUBOFJGVPC0AOCl9K2CVxOAT3DuSw+eFoCflb5V8GoCgJcyooKnBeBI6VsFryYAR8qICp4WALyUvlXwagLwCc596cHTAvCz0rcKXk0A8FJGVPC0ABwpfavg1QTgSBlRwdMCgJfStwpeTQA+wbkvPXhaAH5W+lbBqwkAXsqICp4WgCOlbxW8mgAcKSMqeFoA8FL6VsGrCcAnOPelB08LwM9K3yp4NQHASxlRwdMCcKT0rYJXE4AjZUQFTwsAXkrfKng1AfgE57704GkB+FnpWwWvJgB4KSMqeFoAjpS+VfBqAnCkjKjgaQHAS+lbBa8mAJ/g3JcePC0APyt9q+DVBAAvZUQFTwvAkdK3Cl5NAI6UERU8LQB4KX2r4NUE4BOc+9KDpwXgZ6VvFbyaAOCljKjgaQE4UvpWwasJwJEyooKnBQAvpW8VvJoAfIJzX3rwtAD8rPStglcTALyUERU8LQBHSt8qeDUBOFJGVPC0AOCl9K2CVxOAT3DuSw+eFoCflb5V8GoCgJcyooKnBeBI6VsFryYAR8qICp4WALyUvlXwagLwCc596cHTAvCz0rcKXk0A8FJGVPC0ABwpfavg1QTgSBlRwdMCgJfStwpeTQA+wbkvPXhaAH5W+lbBqwkAXsqICp4WgCOlbxW8mgAcKSMqeFoA8FL6VsGrCcAnOPelB08LwM9K3yp4NQHASxlRwdMCcKT0rYJXE4AjZUQFTwsAXkrfKng1AfgE57704GkB+FnpWwWvJgB4KSMqeFoAjpS+VfBqAnCkjKjgaQHAS+lbBa8mAJ/g3JcePC0APyt9q+DVBAAvZUQFTwvAkdK3Cl5NAI6UERU8LQB4KX2r4NUE4BOc+9KDpwXgZ6VvFbyaAOCljKjgaQE4UvpWwasJwJEyooKnBQAvpW8VvJoAfIJzX3rwtAD8rPStglcTALyUERU8LQBHSt8qeDUBOFJGVPC0AOCl9K2CVxOAT3DuSw+eFoCflb5V8GoCgJcyooKnBeBI6VsFryYAR8qICp4WALyUvlXwagLwCc596cHTAvCz0rcKXk0A8FJGVPC0ABwpfavg1QTgSBlRwdMCgJfStwpeTQA+wbkvPXhaAH5W+lbBqwkAXsqICp4WgCOlbxW8mgAcKSMqeFoA8FL6VsGrCcAnOPelB08LwM9K3yp4NQHASxlRwdMCcKT0rYJXE4AjZUQFTwsAXkrfKng1AfgE57704GkB+FnpWwWvJgB4KSMqeFoAjpS+VfBqAnCkjKjgaQHAS+lbBa8mAJ/g3JcePC0APyt9q+DVBAAvZUQFTwvAkdK3Cl5NAI6UERU8LQB4KX2r4NUE4BOc+9KDpwXgZ6VvFbyaAOCljKjgaQE4UvpWwasJwJEyooKnBQAvpW8VvJoAfIJzX3rwtAD8rPStglcTALyUERU8LQBHSt8qeDUBOFJGVPC0AOCl9K2CVxOAT3DuSw+eFoCflb5V8GoCgJcyooKnBeBI6VsFryYAR8qICp4WALyUvlXwagLwCc596cHTAvCz0rcKXk0A8FJGVPC0ABwpfavg1QTgSBlRwdMCgJfStwpeTQA+wbkvPXhaAH5W+lbBqwkAXsqICp4WgCOlbxW8mgAcKSMqeFoA8FL6VsGrCcAnOPelB08LwM9K3yp4NQHASxlRwdMCcKT0rYJXE4AjZUQFTwsAXkrfKng1AfgE57704GkB+FnpWwWvJgB4KSMqeFoAjpS+VfBqAnCkjKjgaQHAS+lbBa8mAJ/g3JcePC0APyt9q+DVBAAvZUQFTwvAkdK3Cl5NAI6UERU8LQB4KX2r4NUE4BOc+9KDpwXgZ6VvFbyaAOCljKjgaQE4UvpWwasJwJEyooKnBQAvpW8VvJoAfIJzX3rwtAD8rPStglcTALyUERU8LQBHSt8qeDUBOFJGVPC0AOCl9K2CVxOAT3DuSw+eFoCflb5V8GoCgJcyooKnBeBI6VsFryYAR8qICp4WALyUvlXwagLwCc596cHTAvCz0rcKXk0A8FJGVPC0ABwpfavg1QTgSBlRwdMCgJfStwpeTQA+wbkvPXhaAH5W+lbBqwkAXsqICp4WgCOlbxW8mgAcKSMqeFoA8FL6VsGrCcAnOPelB08LwM9K3yp4NQHASxlRwdMCcKT0rYJXE4AjZUQFTwsAXkrfKng1AfgE57704GkB+FnpWwWvJgB4KSMqeFoAjpS+VfBqAnCkjKjgaQHAS+lbBa8mAJ/g3JcePC0APyt9q+DVBAAvZUQFTwvAkdK3Cl5NAI6UERU8LQB4KX2r4NUE4BOc+9KDpwXgZ6VvFbyaAOCljKjgaQE4UvpWwasJwJEyooKnBQAvpW8VvJoAfIJzX3rwtAD8rPStglcTALyUERU8LQBHSt8qeDUBOFJGVPC0AOCl9K2CVxOAT3DuSw+eFoCflb5V8GoCgJcyooKnBeBI6VsFryYAR8qICp4WALyUvlXwagLwCc596cHTAvCz0rcKXk0A8FJGVPC0ABwpfavg1QTgSBlRwdMCgJfStwpeTQA+wbkvPXhaAH5W+lbBqwkAXsqICp4WgCOlbxW8mgAcKSMqeFoA8FL6VsGrCcAnOPelB08LwM9K3yp4NQHASxlRwdMCcKT0rYJXE4AjZUQFTwsAXkrfKng1AfgE57704GkB+FnpWwWvJgB4KSMqeFoAjpS+VfBqAnCkjKjgaQHAS+lbBa8mAJ/g3JcePC0APyt9q+DVBAAvZUQFTwvAkdK3Cl5NAI6UERU8LQB4KX2r4NUE4BOc+9KDpwXgZ6VvFbyaAOCljKjgaQE4UvpWwasJwJEyooKnBQAvpW8VvJoAfIJzX3rwtAD8rPStglcTALyUERU8LQBHSt8qeDUBOFJGVPC0AOCl9K2CVxOAT3DuSw+eFoCflb5V8GoCgJcyooKnBeBI6VsFryYAR8qICp4WALyUvlXwagLwCc596cHTAvCz0rcKXk0A8FJGVPC0ABwpfavg1QTgSBlRwdMCgJfStwpeTQA+wbkvPXhaAH5W+lbBqwkAXsqICp4WgCOlbxW8mgAcKSMqeFoA8FL6VsGrCcAnOPelB08LwM9K3yp4NQHASxlRwdMCcKT0rYJXE4AjZUQFTwsAXkrfKng1AfgE57704GkB+FnpWwWvJgB4KSMqeFoAjpS+VfBqAnCkjKjgaQHAS+lbBa8mAJ/g3JcePC0APyt9q+DVBAAvZUQFTwvAkdK3Cl5NAI6UERU8LQB4KX2r4NUE4BOc+9KDpwXgZ6VvFbyaAOCljKjgaQE4UvpWwasJwJEyooKnBQAvpW8VvJoAfIJzX3rwtAD8rPStglcTALyUERU8LQBHSt8qeDUBOFJGVPC0AOCl9K2CVxOAT3DuSw+eFoCflb5V8GoCgJcyooKnBeBI6VsFryYAR8qICp4WALyUvlXwagLwCc596cHTAvCz0rcKXk0A8FJGVPC0ABwpfavg1QTgSBlRwdMCgJfStwpeTQA+wbkvPXhaAH5W+lbBqwkAXsqICp4WgCOlbxW8mgAcKSMqeFoA8FL6VsGrCcAnOPelB08LwM9K3yp4NQHASxlRwdMCcKT0rYJXE4AjZUQFTwsAXkrfKng1AfgE57704GkB+FnpWwWvJgB4KSMqeFoAjpS+VfBqAnCkjKjgaQHAS+lbBa8mAJ/g3JcePC0APyt9q+DVBAAvZUQFTwvAkdK3Cl5NAI6UERU8LQB4KX2r4NUE4BOc+9KDpwXgZ6VvFbyaAOCljKjgaQE4UvpWwasJwJEyooKnBQAvpW8VvJoAfIJzX3rwtAD8rPStglcTALyUERU8LQBHSt8qeDUBOFJGVPC0AOCl9K2CVxOAT3DuSw+eFoCflb5V8GoCgJcyooKnBeBI6VsFryYAR8qICp4WALyUvlXwagLwCc596cHTAvCz0rcKXk0A8FJGVPC0ABwpfavg1QTgSBlRwdMCgJfStwpeTQA+wbkvPXhaAH5W+lbBqwkAXsqICp4WgCOlbxW8mgAcKSMqeFoA8FL6VsGrCcAnOPelB08LwM9K3yp4NQHASxlRwdMCcKT0rYJXE4AjZUQFTwsAXkrfKng1AfgE57704GkB+FnpWwWvJgB4KSMqeFoAjpS+VfBqAnCkjKjgaQHAS+lbBa8mAJ/g3JcePC0APyt9q+DVBAAvZUQFTwvAkdK3Cl5NAI6UERU8LQB4KX2r4NUE4BOc+9KDpwXgZ6VvFbyaAOCljKjgaQE4UvpWwasJwJEyooKnBQAvpW8VvJoAfIJzX3rwtAD8rPStglcTALyUERU8LQBHSt8qeDUBOFJGVPC0AOCl9K2CVxOAT3DuSw+eFoCflb5V8GoCgJcyooKnBeBI6VsFryYAR8qICp4WALyUvlXwagLwCc596cHTAvCz0rcKXk0A8FJGVPC0ABwpfavg1QTgSBlRwdMCgJfStwpeTQA+wbkvPXhaAH5W+lbBqwkAXsqICp4WgCOlbxW8mgAcKSMqeFoA8FL6VsGrCcAnOPelB08LwM9K3yp4NQHASxlRwdMCcKT0rYJXE4AjZUQFTwsAXkrfKng1AfgE57704GkB+FnpWwWvJgB4KSMqeFoAjpS+VfBqAnCkjKjgaQHAS+lbBa8mAJ/g3JcePC0APyt9q+DVBAAvZUQFTwvAkdK3Cl5NAI6UERU8LQB4KX2r4NUE4BOc+9KDpwXgZ6VvFbyaAOCljKjgaQE4UvpWwasJwJEyooKnBQAvpW8VvJoAfIJzX3rwtAD8rPStglcTALyUERU8LQBHSt8qeDUBOFJGVPC0AOCl9K2CVxOAT3DuSw+eFoCflb5V8GoCgJcyooKnBeBI6VsFryYAR8qICp4WALyUvlXwagLwCc596cHTAvCz0rcKXk0A8FJGVPC0ABwpfavg1QTgSBlRwdMCgJfStwpeTQA+wbkvPXhaAH5W+lbBqwkAXsqICp4WgCOlbxW8mgAcKSMqeFoA8FL6VsGrCcAnOPelB08LwM9K3yp4NQHASxlRwdMCcKT0rYJXE4AjZUQFTwsAXkrfKng1AfgE57704GkB+FnpWwWvJgB4KSMqeFoAjpS+VfBqAnCkjKjgaQHAS+lbBa8mAJ/g3JcePC0APyt9q+DVBAAvZUQFTwvAkdK3Cl5NAI6UERU8LQB4KX2r4NUE4BOc+9KDpwXgZ6VvFbyaAOCljKjgaQE4UvpWwasJwJEyooKnBQAvpW8VvJoAfIJzX3rwtAD8rPStglcTALyUERU8LQBHSt8qeDUBOFJGVPC0AOCl9K2CVxOAT3DuSw+eFoCflb5V8GoCgJcyooKnBeBI6VsFryYAR8qICp4WALyUvlXwagLwCc596cHTAvCz0rcKXk0A8FJGVPC0ABwpfavg1QTgSBlRwdMCgJfStwpeTQA+wbkvPXhaAH5W+lbBqwkAXsqICp4WgCOlbxW8mgAcKSMqeFoA8FL6VsGrCcAnOPelB08LwM9K3yp4NQHASxlRwdMCcKT0rYJXE4AjZUQFTwsAXkrfKng1AfgE57704GkB+FnpWwWvJgB4KSMqeFoAjpS+VfBqAnCkjKjgaQHAS+lbBa8mAJ/g3JcePC0APyt9q+DVBAAvZUQFTwvAkdK3Cl5NAI6UERU8LQB4KX2r4NUE4BOc+9KDpwXgZ6VvFbyaAOCljKjgaQE4UvpWwasJwJEyooKnBQAvpW8VvJoAfIJzX3rwtAD8rPStglcTALyUERU8LQBHSt8qeDUBOFJGVPC0AOCl9K2CVxOAT3DuSw+eFoCflb5V8GoCgJcyooKnBeBI6VsFryYAR8qICp4WALyUvlXwagLwCc596cHTAvCz0rcKXk0A8FJGVPC0ABwpfavg1QTgSBlRwdMCgJfStwpeTQA+wbkvPXhaAH5W+lbBqwkAXsqICp4WgCOlbxW8mgAcKSMqeFoA8FL6VsGrCcAnOPelB08LwM9K3yp4NQHASxlRwdMCcKT0rYJXE4AjZUQFTwsAXkrfKng1AfgE57704GkB+FnpWwWvJgB4KSMqeFoAjpS+VfBqAnCkjKjgaQHAS+lbBa8mAJ/g3JcePC0APyt9q+DVBAAvZUQFTwvAkdK3Cl5NAI6UERU8LQB4KX2r4NUE4BOc+9KDpwXgZ6VvFbyaAOCljKjgaQE4UvpWwasJwJEyooKnBQAvpW8VvJoAfIJzX3rwtAD8rPStglcTALyUERU8LQBHSt8qeDUBOFJGVPC0AOCl9K2CVxOAT3DuSw+eFoCflb5V8GoCgJcyooKnBeBI6VsFryYAR8qICp4WALyUvlXwagLwCc596cHTAvCz0rcKXk0A8FJGVPC0ABwpfavg1QTgSBlRwdMCgJfStwpeTQA+wbkvPXhaAH5W+lbBqwkAXsqICp4WgCOlbxW8mgAcKSMqeFoA8FL6VsGrCcAnOPelB08LwM9K3yp4NQHASxlRwdMCcKT0rYJXE4AjZUQFTwsAXkrfKng1AfgE57704GkB+FnpWwWvJgB4KSMqeFoAjpS+VfBqAnCkjKjgaQHAS+lbBa8mAJ/g3JcePC0APyt9q+DVBAAvZUQFTwvAkdK3Cl5NAI6UERU8LQB4KX2r4NUE4BOc+9KDpwXgZ6VvFbyaAOCljKjgaQE4UvpWwasJwJEyooKnBQAvpW8VvJoAfIJzX3rwtAD8rPStglcTALyUERU8LQBHSt8qeDUBOFJGVPC0AOCl9K2CVxOAT3DuSw+eFoCflb5V8GoCgJcyooKnBeBI6VsFryYAR8qICp4WALyUvlXwagLwCc596cHTAvCz0rcKXk0A8FJGVPC0ABwpfavg1QTgSBlRwdMCgJfStwpeTQA+wbkvPXhaAH5W+lbBqwkAXsqICp4WgCOlbxW8mgAcKSMqeFoA8FL6VsGrCcAnOPelB08LwM9K3yp4NQHASxlRwdMCcKT0rYJXE4AjZUQFTwsAXkrfKng1AfgE57704GkB+FnpWwWvJgB4KSMqeFoAjpS+VfBqAnCkjKjgaQHAS+lbBa8mAJ/g3JcePC0APyt9q+DVBAAvZUQFTwvAkdK3Cl5NAI6UERU8LQB4KX2r4NUE4BOc+9KDpwXgZ6VvFbyaAOCljKjgaQE4UvpWwasJwJEyooKnBQAvpW8VvJoAfIJzX3rwtAD8rPStglcTALyUERU8LQBHSt8qeDUBOFJGVPC0AOCl9K2CVxOAT3DuSw+eFoCflb5V8GoCgJcyooKnBeBI6VsFryYAR8qICp4WALyUvlXwagLwCc596cHTAvCz0rcKXk0A8FJGVPC0ABwpfavg1QTgSBlRwdMCgJfStwpeTQA+wbkvPXhaAH5W+lbBqwkAXsqICp4WgCOlbxW8mgAcKSMqeFoA8FL6VsGrCcAnOPelB08LwM9K3yp4NQHASxlRwdMCcKT0rYJXE4AjZUQFTwsAXkrfKng1AfgE57704GkB+FnpWwWvJgB4KSMqeFoAjpS+VfBqAnCkjKjgaQHAS+lbBa8mAJ/g3JcePC0APyt9q+DVBAAvZUQFTwvAkdK3Cl5NAI6UERU8LQB4KX2r4NUE4BOc+9KDpwXgZ6VvFbyaAOCljKjgaQE4UvpWwasJwJEyooKnBQAvpW8VvJoAfIJzX3rwtAD8rPStglcTALyUERU8LQBHSt8qeDUBOFJGVPC0AOCl9K2CVxOAT3DuSw+eFoCflb5V8GoCgJcyooKnBeBI6VsFryYAR8qICp4WALyUvlXwagLwCc596cHTAvCz0rcKXk0A8FJGVPC0ABwpfavg1QTgSBlRwdMCgJfStwpeTQA+wbkvPXhaAH5W+lbBqwkAXsqICp4WgCOlbxW8mgAcKSMqeFoA8FL6VsGrCcAnOPelB08LwM9K3yp4NQHASxlRwdMCcKT0rYJXE4AjZUQFTwsAXkrfKng1AfgE57704GkB+FnpWwWvJgB4KSMqeFoAjpS+VfBqAnCkjKjgaQHAS+lbBa8mAJ/g3JcePC0APyt9q+DVBAAvZUQFTwvAkdK3Cl5NAI6UERU8LQB4KX2r4NUE4BOc+9KDpwXgZ6VvFbyaAOCljKjgaQE4UvpWwasJwJEyooKnBQAvpW8VvJoAfIJzX3rwtAD8rPStglcTALyUERU8LQBHSt8qeDUBOFJGVPC0AOCl9K2CVxOAT3DuSw+eFoCflb5V8GoCgJcyooKnBeBI6VsFryYAR8qICp4WALyUvlXwagLwCc596cHTAvCz0rcKXk0A8FJGVPC0ABwpfavg1QTgSBlRwdMCgJfStwpeTQA+wbkvPXhaAH5W+lbBqwkAXsqICp4WgCOlbxW8mgAcKSMqeFoA8FL6VsGrCcAnOPelB08LwM9K3yp4NQHASxlRwdMCcKT0rYJXE4AjZUQFTwsAXkrfKng1AfgE57704GkB+FnpWwWvJgB4KSMqeFoAjpS+VfBqAnCkjKjgaQHAS+lbBa8mAJ/g3JcePC0APyt9q+DVBAAvZUQFTwvAkdK3Cl5NAI6UERU8LQB4KX2r4NUE4BOc+9KDpwXgZ6VvFbyaAOCljKjgaQE4UvpWwasJwJEyooKnBQAvpW8VvJoAfIJzX3rwtAD8rPStglcTALyUERU8LQBHSt8qeDUBOFJGVPC0AOCl9K2CVxOAT3DuSw+eFoCflb5V8GoCgJcyooKnBeBI6VsFryYAR8qICp4WALyUvlXwagLwCc596cHTAvCz0rcKXk0A8FJGVPC0ABwpfavg1QTgSBlRwdMCgJfStwpeTQA+wbkvPXhaAH5W+lbBqwkAXsqICp4WgCOlbxW8mgAcKSMqeFoA8FL6VsGrCcAnOPelB08LwM9K3yp4NQHASxlRwdMCcKT0rYJXE4AjZUQFTwsAXkrfKng1AfgE57704GkB+FnpWwWvJgB4KSMqeFoAjpS+VfBqAnCkjKjgaQHAS+lbBa8mAJ/g3JcePC0APyt9q+DVBAAvZUQFTwvAkdK3Cl5NAI6UERU8LQB4KX2r4NUE4BOc+9KDpwXgZ6VvFbyaAOCljKjgaQE4UvpWwasJwJEyooKnBQAvpW8VvJoAfIJzX3rwtAD8rPStglcTALyUERU8LQBHSt8qeDUBOFJGVPC0AOCl9K2CVxOAT3DuSw+eFoCflb5V8GoCgJcyooKnBeBI6VsFryYAR8qICp4WALyUvlXwagLwCc596cHTAvCz0rcKXk0A8FJGVPC0ABwpfavg1QTgSBlRwdMCgJfStwpeTQA+wbkvPXhaAH5W+lbBqwkAXsqICp4WgCOlbxW8mgAcKSMqeFoA8FL6VsGrCcAnOPelB08LwM9K3yp4NQHASxlRwdMCcKT0rYJXE4AjZUQFTwsAXkrfKng1AfgE57704GkB+FnpWwWvJgB4KSMqeFoAjpS+VfBqAnCkjKjgaQHAS+lbCK3i7wAAIABJREFUBa8mAJ/g3JcePC0APyt9q+DVBAAvZUQFTwvAkdK3Cl5NAI6UERU8LQB4KX2r4NUE4BOc+9KDpwXgZ6VvFbyaAOCljKjgaQE4UvpWwasJwJEyooKnBQAvpW8VvJoAfIJzXwIAAAAAAAAAAPivOPclAAAAAAAAAACA/4pzXwIAAAAAAAAAAPivOPclAAAAAAAAAACA/4pzXwIAAAAAAAAAAPivOPclAAAAAAAAAACA/4pzXwIAAAAAAAAAAPivOPclAAAAAAAAAACA/4pzXwIAAAAAAAAAAPivOPelB08LwM9K3yp4NQHASxlRwdMCcKT0rYJXE4AjZUQFTwsAXkrfKng1AfgE57704GkB+FnpWwWvJgB4KSMqeFoAjpS+VfBqAnCkjKjgaQHAS+lbBa8mAJ/g3JcePC0APyt9q+DVBAAvZUQFTwvAkdK3Cl5NAI6UERU8LQB4KX2r4NUE4BOc+9KDpwXgZ6VvFbyaAOCljKjgaQE4UvpWwasJwJEyooKnBQAvpW8VvJoAfIJzX3rwtAD8rPStglcTALyUERU8LQBHSt8qeDUBOFJGVPC0AOCl9K2CVxOAT3DuSw+eFoCflb5V8GoCgJcyooKnBeBI6VsFryYAR8qICp4WALyUvlXwagLwCc596cHTAvCz0rcKXk0A8FJGVPC0ABwpfavg1QTgSBlRwdMCgJfStwpeTQA+wbkvPXhaAH5W+lbBqwkAXsqICp4WgCOlbxW8mgAcKSMqeFoA8FL6VsGrCcAnOPelB08LwM9K3yp4NQHASxlRwdMCcKT0rYJXE4AjZUQFTwsAXkrfKng1AfgE57704GkB+FnpWwWvJgB4KSMqeFoAjpS+VfBqAnCkjKjgaQHAS+lbBa8mAJ/g3JcePC0APyt9q+DVBAAvZUQFTwvAkdK3Cl5NAI6UERU8LQB4KX2r4NUE4BOc+9KDpwXgZ6VvFbyaAOCljKjgaQE4UvpWwasJwJEyooKnBQAvpW8VvJoAfIJzX3rwtAD8rPStglcTALyUERU8LQBHSt8qeDUBOFJGVPC0AOCl9K2CVxOAT3DuSw+eFoCflb5V8GoCgJcyooKnBeBI6VsFryYAR8qICp4WALyUvlXwagLwCc596cHTAvCz0rcKXk0A8FJGVPC0ABwpfavg1QTgSBlRwdMCgJfStwpeTQA+wbkvPXhaAH5W+lbBqwkAXsqICp4WgCOlbxW8mgAcKSMqeFoA8FL61v+xBwe5jWy5EkAjhgLH2hJXkcu7q+CSes6exgcaaEAfr+nKq7LTlhXnDFgBM/sVqPsND7gIM3tZysaAFTAz26RDGHARZvaWlI0BK2Bmb0mHMOAizMw2KRsDVsDMfgXqfsMDLsLMXpayMWAFzMw26RAGXISZvSVlY8AKmNlb0iEMuAgzs03KxoAVMLNfgbrf8ICLMLOXpWwMWAEzs006hAEXYWZvSdkYsAJm9pZ0CAMuwsxsk7IxYAXM7Feg7jc84CLM7GUpGwNWwMxskw5hwEWY2VtSNgasgJm9JR3CgIswM9ukbAxYATP7Faj7DQ+4CDN7WcrGgBUwM9ukQxhwEWb2lpSNAStgZm9JhzDgIszMNikbA1bAzH4F6n7DAy7CzF6WsjFgBczMNukQBlyEmb0lZWPACpjZW9IhDLgIM7NNysaAFTCzX4G63/CAizCzl6VsDFgBM7NNOoQBF2Fmb0nZGLACZvaWdAgDLsLMbJOyMWAFzOxXoO43POAizOxlKRsDVsDMbJMOYcBFmNlbUjYGrICZvSUdwoCLMDPbpGwMWAEz+xWo+w0PuAgze1nKxoAVMDPbpEMYcBFm9paUjQErYGZvSYcw4CLMzDYpGwNWwMx+Bep+wwMuwsxelrIxYAXMzDbpEAZchJm9JWVjwAqY2VvSIQy4CDOzTcrGgBUws1+But/wgIsws5elbAxYATOzTTqEARdhZm9J2RiwAmb2lnQIAy7CzGyTsjFgBczsV6DuNzzgIszsZSkbA1bAzGyTDmHARZjZW1I2BqyAmb0lHcKAizAz26RsDFgBM/sVqPsND7gIM3tZysaAFTAz26RDGHARZvaWlI0BK2Bmb0mHMOAizMw2KRsDVsDMfgXqfsMDLsLMXpayMWAFzMw26RAGXISZvSVlY8AKmNlb0iEMuAgzs03KxoAVMLNfgbrf8ICLMLOXpWwMWAEzs006hAEXYWZvSdkYsAJm9pZ0CAMuwsxsk7IxYAXM7Feg7jc84CLM7GUpGwNWwMxskw5hwEWY2VtSNgasgJm9JR3CgIswM9ukbAxYATP7Faj7DQ+4CDN7WcrGgBUwM9ukQxhwEWb2lpSNAStgZm9JhzDgIszMNikbA1bAzH4F6n7DAy7CzF6WsjFgBczMNukQBlyEmb0lZWPACpjZW9IhDLgIM7NNysaAFTCzX4G63/DoX/+GPYsVMPtWysaAFTAz26RDGHARZvaWlI0BK2Bmb0mHMOAizMw2KRsDVsDsWykb9hmo+w2P/vVv2N9hBcy+ibIxYAXMzDbpEAZchJm9JWVjwAqY2VvSIQy4CDOzTcrGgBUw+ybKhn0e6n7Do3/9G/bXWAGz76BsDFgBM7NNOoQBF2Fmb0nZGLACZvaWdAgDLsLMbJOyMWAFzL6DsmGfirrf8Ohf/4b9NVbA7DsoGwNWwMxskw5hwEWY2VtSNgasgJm9JR3CgIswM9ukbAxYAbPvoGzYp6LuNzz6179hn4EVMLucsjFgBczMNukQBlyEmf12ysZfYwXM7LfTIQy4CDOzTcrGgBUwu5yyYZ+Nut/w6F//hn0GVsDscsrGgBUwM9ukQxhwEWb24pSN78YKmNnr0yEMuAgzs03KxoAVMLucsmGfjbrf8Ohf/4Z9BlbA7HLKxoAVMDPbpEMYcBFm9jqUjZfCCpjZ69AhDLgIM7NNysaAFTC7nLJhn4263/DoX/+GfQZWwOxyysaAFTAz26RDGHARZvaDKRu/CytgZj+VDmHARZiZbVI2BqyA2eWUDfts1P2GR//6N+wzsAJml1M2BqyAmdkmHcKAizCzn0TZeBusgJn9JDqEARdhZrZJ2RiwAmaXUzbss1H3Gx5wEXaasjFgBcwup2wMWAEzs006hAEXYWbfTdkwgBUws2+lQxhwEWZmm5SNAStgdjllY8AK2FOo+w0PuAg7TdkYsAJml1M2BqyAmdkmHcKAizCzyykb9iFWwMwup0MYcBFmZpuUjQErYHY5ZWPACthTqPsND7gIO03ZGLACZpdTNgasgJnZJh3CgIsws6soG7aJFTCzq+gQBlyEmdkmZWPACphdTtkYsAL2FOp+wwMuwk5TNgasgNnllI0BK2BmtkmHMOAizOyLKRv211gBM/tiOoQBF2FmtknZGLACZpdTNgasgD2Fut/wgIuw05SNAStgdjllY8AKmJlt0iEMuAgz+wLKxo/BCvyDsjFgBf5B2fgxWAEz+wI6hAEXYWa2SdkYsAJml1M2BqyAPYW63/CAi7DTlI0BK2B2OWVjwAqYmW3SIQy4CDP7PMrGd2AFNikbA1Zgk7LxHVgBM/s8OoQBF2FmtknZGLACZpdTNgasgD2Fut/wgIuw05SNAStgdjllY8AKmJlt0iEMuAgz+2vKxiVYgU+ibAxYgU+ibHw9VsDMPoMOYcBFmJltUjYGrIDZ5ZSNAStgT6HuNzzgIuw0ZWPACphdTtkYsAJmZpt0CAMuwsz+grLxlViBr6FsDFiBL6BsfDFWwMz+gg5hwEWYmW1SNgasgNnllI0BK2BPoe43POAi7DRlY8AKmF1O2RiwAmZmm3QIAy7CzPYpG1+DFbiEsjFgBb6esvE1WAEze4oOYcBFmJltUjYGrIDZ5ZSNAStgT6HuNzzgIuw0ZWPACphdTtkYsAJmZpt0CAMuwsx2KBufjRW4nLIxYAWupWx8AVbAzHboEAZchJnZJmVjwAqYXU7ZGLAC9hTqfsMDLsJOUzYGrIDZ5ZSNAStgZrZJhzDgIszsHGXjU7EC30fZGLAC30fZ+FSsgJmdo0MYcBFmZpuUjQErYHY5ZWPACthTqPsND7gIO03ZGLACZpdTNgasgJnZJh3CgIswsw8pG5+KFfgBlI0BK/ADKBufhxUwsz/RIQy4CDOzTcrGgBUwu5yyMWAF7CnU/YYHXISdpmwMWAGzyykbA1bAzGyTDmHARZjZQNn4JKzAD6NsDFiBH0bZ+CSsgJkNdAgDLsLMbJOyMWAFzC6nbAxYAXsKdb/hARdhpykbA1bA7HLKxoAVMDPbpEMYcBFm9g/KxmdgBX4qZWPACvxUysZnYAXM7B90CAMuwsxsk7IxYAXMLqdsDFgBewp1v+EBF2GnKRsDVsDscsrGgBUwM9ukQxhwEWb2QNn4a6zAj6dsDFiBH0/Z+GusgJk90CEMuAgzs03KxoAVMLucsjFgBewp1P2GB1yEnaZsDFgBs8spGwNWwMxskw5hwEWY2X8oG3+NFXgRysaAFXgRysZfYwXM7D90CAMuwsxsk7IxYAXMLqdsDFgBewp1v+EBF2GnKRsDVsDscsrGgBUwM9ukQxhwEWZvT9n4O6zAq1E2BqzAq1E2/g4rYPb2dAgDLsLMbJOyMWAFzC6nbAxYAXsKdb/hARdhpykbA1bA7HLKxoAVMDPbpEMYcBFmb0zZ+DuswGtSNgaswGtSNv4CK2D23nQIAy7CzGyTsjFgBcwup2wMWAF7CnW/4QEXYacpGwNWwOxyysaAFTAz26RDGHARZu9K2XgWK/DilI0BK/DilI1nsQJm70qHMOAizMw2KRsDVsDscsrGgBWwp1D3Gx5wEXaasjFgBcwup2wMWAEzs006hAEXYfZ+lI1nsQK/grIxYAV+BWXjWayA2fvRIQy4CDOzTcrGgBUwu5yyMWAF7CnU/YYHXISdpmwMWAGzyykbA1bAzGyTDmHARZi9GWVjHyvwuygbA1bgd1E2nsIKmL0THcKAizAz26RsDFgBs8spGwNWwJ5C3W94wEXYacrGgBUwu5yyMWAFzMw26RAGXITZ21A29rECv5GyMWAFfiNlYx8rYPY2dAgDLsLMbJOyMWAFzC6nbAxYAXsKdb/hARdhpykbA1bA7HLKxoAVMDPbpEMYcBFmb0DZ2McK/F7KxoAV+L2UjX2sgNkb0CEMuAgzs03KxoAVMLucsjFgBewp1P2GB1yEnaZsDFgBs8spGwNWwMxskw5hwEWY/XbKxiZW4LdTNgaswK+mbOxjBcx+Ox3CgIswM9ukbAxYAbPLKRsDVsCeQt1veMBF2GnKxoAVMLucsjFgBczMNukQBlyE2e+lbOxjBd6AsjFgBd6AsrGPFTD7vXQIAy7CzGyTsjFgBcwup2wMWAF7CnW/4QEXYacpGwNWwOxyysaAFTAz26RDGHARZr+UsrGJFXgbysaAFXgbysY+VsDsN9IhDLgIM7NNysaAFTC7nLIxYAXsKdT9hgdchJ2mbAxYAbPLKRsDVsDMbJMOYcBFmP06ysYmVuDNKBsDVuDNKBubWAGzX0eHMOAizMw2KRsDVsDscsrGgBWwp1D3Gx5wEXaasjFgBcwup2wMWAEzs006hAEXYfaLKBubWIG3pGwMWIG3pGxsYgXMfhEdwoCLMDPbpGwMWAGzyykbA1bAnkLdb3jARdhpysaAFTC7nLIxYAXMzDbpEAZchNmvoGxsYgXemLIxYAXemLKxiRUw+xV0CAMuwsxsk7IxYAXMLqdsDFgBewp1v+EBF2GnKRsDVsDscsrGgBUwM9ukQxhwEWavT9nYxAq8N2VjwAq8PWVjBytg9vp0CAMuwsxsk7IxYAXMLqdsDFgBewp1v+EBF2GnKRsDVsDscsrGgBUwM9ukQxhwEWYvTtnYwQoYoGwMWAEDlI0drIDZi9MhDLgIM7NNysaAFTC7nLIxYAXsKdT9hgdchJ2mbAxYAbPLKRsDVsDMbJMOYcBFmL0yZeM0VsD+S9kYsAL2X8rGDlbA7GXpEAZchJnZJmVjwAqYXU7ZGLAC9hTqfsMDLsJOUzYGrIDZ5ZSNAStgZrZJhzDgIsxek7KxgxWwB8rGgBWwB8rGDlbA7DXpEAZchJnZJmVjwAqYXU7ZGLAC9hTqfsMDLsJOUzYGrIDZ5ZSNAStgZrZJhzDgIsxekLJxGitg/6BsDFgB+wdl4zRWwOwF6RAGXISZ2SZlY8AKmF1O2RiwAvYU6n7DAy7CTlM2BqyA2eWUjQErYGa2SYcw4CLMXo2ycRorYP+LsjFgBWygbJzDCpi9Gh3CgIswM9ukbAxYAbPLKRsDVsCeQt1veMBF2GnKxoAVMLucsjFgBczMNukQBlyE2UtRNs5hBWymbAxYAZspG6exAmavQ4cw4CLMzDYpGwNWwOxyysaAFbCnUPcbHnARdpqyMWAFzC6nbAxYATOzTTqEARdh9iKUjdNYAfuQsjFgBexDysZprIDZi9AhDLgIM7NNysaAFTC7nLIxYAXsKdT9hgdchJ2mbAxYAbPLKRsDVsDMbJMOYcBFmL0CZeM0VsD+RNkYsAJ2grJxDitg9gp0CAMuwsxsk7IxYAXMLqdsDFgBewp1v+EBF2GnKRsDVsDscsrGgBUwM9ukQxhwEWY/nrJxDitg5ygbA1bAzlE2zmEFzH48HcKAizAz26RsDFgBs8spGwNWwJ5C3W94wEXYacrGgBUwu5yyMWAFzMw26RAGXITZz6ZsnMMK2GnKxoAVsNOUjXNYAbOfTYcw4CLMzDYpGwNWwOxyysaAFbCnUPcbHnARdpqyMWAFzC6nbAxYATOzTTqEARdh9lMpG6exArZD2RiwArZJ2TiHFTD7qXQIAy7CzGyTsjFgBcwup2wMWAF7CnW/4QEXYacpGwNWwOxyysaAFTAz26RDGHARZj+SsnEOK2D7lI0BK2D7lI1zWAGzH0mHMOAizMw2KRsDVsDscsrGgBWwp1D3Gx5wEXaasjFgBcwup2wMWAEzs006hAEXYfbzKBvnsAL2FGVjwArYU5SNc1gBs59HhzDgIszMNikbA1bA7HLKxoAVsKdQ9xsecBF2mrIxYAXMLqdsDFgBM7NNOoQBF2H2wygb57AC9ixlY8AK2F9QNk5gBcx+GB3CgIswM9ukbAxYAbPLKRsDVsCeQt1veMBF2GnKxoAVMLucsjFgBczMNukQBlyE2U+ibJzDCthfUDYGrID9HWXjBFbA7CfRIQy4CDOzTcrGgBUwu5yyMWAF7CnU/YYHXISdpmwMWAGzyykbA1bAzGyTDmHARZj9GMrGCayA/TVlY8AK2F9TNk5gBcx+DB3CgIswM9ukbAxYAbPLKRsDVsCeQt1veMBF2GnKxoAVMLucsjFgBczMNukQBlyE2c+gbJzACthnUDYGrIB9BmXjBFbA7GfQIQy4CDOzTcrGgBUwu5yyMWAF7CnU/YYHXISdpmwMWAGzyykbA1bAzGyTDmHARZj9AMrGCayAfRJlY8AK2CdRNk5gBcx+AB3CgIswM9ukbAxYAbPLKRsDVsCeQt1veMBF2GnKxoAVMLucsjFgBczMNukQBlyE2XdTNk5gBezzKBsDVsA+j7JxAitg9t10CAMuwsxsk7IxYAXMLqdsDFgBewp1v+EBF2GnKRsDVsDscsrGgBUwM9ukQxhwEWbfStk4gRWwT6VsDFgB+1TKxgmsgNm30iEMuAgzs03KxoAVMLucsjFgBewp1P2GB1yEnaZsDFgBs8spGwNWwMxskw5hwEWYfR9l4wRWwD6bsjFgBeyzKRsnsAJm30eHMOAizMw2KRsDVsDscsrGgBWwp1D3Gx5wEXaasjFgBcwup2wMWAEzs006hAEXYfZNlI0TWAH7AsrGgBWwL6BsnMAKmH0THcKAizAz26RsDFgBs8spGwNWwJ5C3W94wEXYacrGgBUwu5yyMWAFzMw26RAGXITZd1A2TmAF7GsoGwNWwL6GsnECK2D2HXQIAy7CzGyTsjFgBcwup2wMWAF7CnW/4QEXYacpGwNWwOxyysaAFTAz26RDGHARZpdTNk5gBezLKBsDVsC+jLJxAitgdjkdwoCLMDPbpGwMWAGzyykbA1bAnkLdb3jARdhpysaAFTC7nLIxYAXMzDbpEAZchNm1lI0/YQXsiykbA1bAvpiy8SesgNm1dAgDLsLMbJOyMWAFzC6nbAxYAXsKdb/hARdhpykbA1bA7HLKxoAVMDPbpEMYcBFmF1I2/oQVsK+nbAxYAft6ysafsAJmF9IhDLgIM7NNysaAFTC7nLIxYAXsKdT9hgdchJ2mbAxYAbPLKRsDVsDMbJMOYcBFmF1F2fgTVsAuoWwMWAG7hLLxJ6yA2VV0CAMuwsxsk7IxYAXMLqdsDFgBewp1v+EBF2GnKRsDVsDscsrGgBUwM9ukQxhwEWaXUDb+hBWwqygbA1bArqJs/AkrYHYJHcKAizAz26RsDFgBs8spGwNWwJ5C3W94wEXYacrGgBUwu5yyMWAFzMw26RAGXITZJZSND7ECdiFlY8AK2IWUjQ+xAmaX0CEMuAgzs03KxoAVMLucsjFgBewp1P2GB1yEnaZsDFgBs8spGwNWwMxskw5hwEWYfT1l40OsgF1L2RiwAnYtZeNDrIDZ19MhDLgIM7NNysaAFTC7nLIxYAXsKdT9hgdchJ2mbAxYAbPLKRsDVsDMbJMOYcBFmH0xZeNDrIBdTtkYsAJ2OWXjQ6yA2RfTIQy4CDOzTcrGgBUwu5yyMWAF7CnU/YYHXISdpmwMWAGzyykbA1bAzGyTDmHARZh9JWXjQ6yAfQdlY8AK2HdQNj7ECph9JR3CgIswM9ukbAxYAbPLKRsDVsCeQt1veMBF2GnKxoAVMLucsjFgBczMNukQBlyE2ZdRNv6EFbDvoGwMWAH7DsrGn7ACZl9GhzDgIszMNikbA1bA7HLKxoAVsKdQ9xsecBF2mrIxYAXMLqdsDFgBM7NNOoQBF2H2NZSNP2EF7JsoGwNWwL6JsvEnrIDZ19AhDLgIM7NNysaAFTC7nLIxYAXsKdT9hgdchJ2mbAxYAbPLKRsDVsDMbJMOYcBFmH0NZeNDrIB9H2VjwArY91E2PsQKmH0NHcKAizAz26RsDFgBs8spGwNWwJ5C3W94wEXYacrGgBUwu5yyMWAFzMw26RAGXITZF1A2PsQK2LdSNgasgH0rZeNDrIDZF9AhDLgIM7NNysaAFTC7nLIxYAXsKdT9hgdchJ2mbAxYAbPLKRsDVsDMbJMOYcBFmH02ZeNDrIB9N2VjwArYd1M2PsQKmH02HcKAizAz26RsDFgBs8spGwNWwJ5C3W94wEXYacrGgBUwu5yyMWAFzMw26RAGXITZp1I2/oQVsO+mbAxYAftuysafsAJmn0qHMOAizMw2KRsDVsDscsrGgBWwp1D3Gx5wEXaasjFgBcwup2wMWAEzs006hAEXYfZ5lI0/YQXsB1A2BqyA/QDKxp+wAmafR4cw4CLMzDYpGwNWwOxyysaAFbCnUPcbHnARdpqyMWAFzC6nbAxYATOzTTqEARdh9nmUjQ+xAvYzKBsDVsB+BmXjQ6yA2efRIQy4CDOzTcrGgBUwu5yyMWAF7CnU/YYHXISdpmwMWAGzyykbA1bAzGyTDmHARZh9EmXjQ6yA/RjKxoAVsB9D2fgQK2D2SXQIAy7CzGyTsjFgBcwup2wMWAF7CnW/4QEXYacpGwNWwOxyysaAFTAz26RDGHARZp9B2fgQK2A/ibIxYAXsJ1E2PsQKmH0GHcKAizAz26RsDFgBs8spGwNWwJ5C3W94wEXYacrGgBUwu5yyMWAFzMw26RAGXITZX1M2/oQVsJ9E2RiwAvaTKBt/wgqY/TUdwoCLMDPbpGwMWAGzyykbA1bAnkLdb3jARdhpysaAFTC7nLIxYAXMzDbpEAZchNnfUTb+hBWwH0bZGLAC9sMoG3/CCpj9HR3CgIswM9ukbAxYAbPLKRsDVsCeQt1veMBF2GnKxoAVMLucsjFgBczMNukQBlyE2d9RNj7ECtjPo2wMWAH7eZSND7ECZn9HhzDgIszMNikbA1bA7HLKxoAVsKdQ9xsecBF2mrIxYAXMLqdsDFgBM7NNOoQBF2H2d5SNGStgP5KyMWAF7EdSNmasgNnf0SEMuAgzs03KxoAVMLucsjFgBewp1P2GB1yEnaZsDFgBs8spGwNWwMxskw5hwEWY/QVl40OsgP1IysaAFbAfSdn4ECtg9hd0CAMuwsxsk7IxYAXMLqdsDFgBewp1v+EBF2GnKRsDVsDscsrGgBUwM9ukQxhwEWbPUjY+xArYT6VsDFgB+6mUjQ+xAmbP0iEMuAgzs03KxoAVMLucsjFgBewp1P2GB1yEnaZsDFgBs8spGwNWwMxskw5hwEWYPUvZmLEC9oMpGwNWwH4wZWPGCpg9S4cw4CLMzDYpGwNWwOxyysaAFbCnUPcbHnARdpqyMWAFzC6nbAxYATOzTTqEARdh9hRlY8YK2M+mbAxYAfvZlI0ZK2D2FB3CgIswM9ukbAxYAbPLKRsDVsCeQt1veMBF2GnKxoAVMLucsjFgBczMNukQBlyE2T5l40OsgP1sysaAFbCfTdn4ECtgtk+HMOAizMw2KRsDVsDscsrGgBWwp1D3Gx5wEXaasjFgBcwup2wMWAEzs006hAEXYbZP2ZixAvbjKRsDVsB+PGVjxgqY7dMhDLgIM7NNysaAFTC7nLIxYAXsKdT9hgdchJ2mbAxYAbPLKRsDVsDMbJMOYcBFmG1SNmasgL0CZWPACtgrUDZmrIDZJh3CgIswM9ukbAxYAbPLKRsDVsCeQt1veMBF2GnKxoAVMLucsjFgBczMNukQBlyE2Q5l40OsgL0CZWPACtgrUDY+xAqY7dAhDLgIM7NNysaAFTC7nLIxYAXsKdT9hgdchJ2mbAxYAbPLKRsDVsDMbJMOYcBFmO1QNmasgL0IZWPACtiLUDZmrIDZDh3CgItwwJ2iAAAgAElEQVQwM9ukbAxYAbPLKRsDVsCeQt1veMBF2GnKxoAVMLucsjFgBczMNukQBlyE2WnKxowVsNehbAxYAXsdysaMFTA7TYcw4CLMzDYpGwNWwOxyysaAFbCnUPcbHnARdpqyMWAFzC6nbAxYATOzTTqEARdhdo6y8SFWwF6HsjFgBex1KBsfYgXMztEhDLgIM7NNysaAFTC7nLIxYAXsKdT9hgdchJ2mbAxYAbPLKRsDVsDMbJMOYcBFmJ2jbMxYAXspysaAFbCXomzMWAGzc3QIAy7CzGyTsjFgBcwup2wMWAF7CnW/4QEXYacpGwNWwOxyysaAFTAz26RDGHARZicoGx9iBeylKBsDVsBeirLxIVbA7AQdwoCLMDPbpGwMWAGzyykbA1bAnkLdb3jARdhpysaAFTC7nLIxYAXMzDbpEAZchNkJysaMFbBXo2wMWAF7NcrGjBUwO0GHMOAizMw2KRsDVsDscsrGgBWwp1D3Gx5wEXaasjFgBcwup2wMWAEzs006hAEXYfYnysaMFbAXpGwMWAF7QcrGjBUw+xMdwoCLMDPbpGwMWAGzyykbA1bAnkLdb3jARdhpysaAFTC7nLIxYAXMzDbpEAZchNmHlI0PsQL2gpSNAStgL0jZ+BArYPYhHcKAizAz26RsDFgBs8spGwNWwJ5C3W94wEXYacrGgBUwu5yyMWAFzMw26RAGXITZh5SNGStgr0nZGLAC9pqUjRkrYPYhHcKAizAz26RsDFgBs8spGwNWwJ5C3W94wEXYacrGgBUwu5yyMWAFzMw26RAGXITZTNn4ECtgr0nZGLAC9pqUjQ+xAmYzHcKAizAz26RsDFgBs8spGwNWwJ5C3W94wEXYacrGgBUwu5yyMWAFzMw26RAGXITZTNmYsQL2spSNAStgL0vZmLECZjMdwoCLMDPbpGwMWAGzyykbA1bAnkLdb3jARdhpysaAFTC7nLIxYAXMzDbpEAZchNlA2fgQK2AvS9kYsAL2spSND7ECZgMdwoCLMDPbpGwMWAGzyykbA1bAnkLdb3jARdhpysaAFTC7nLIxYAXMzDbpEAZchNlA2ZixAvbKlI0BK2CvTNmYsQJmAx3CgIswM9ukbAxYAbPLKRsDVsCeQt1veMBF2GnKxoAVMLucsjFgBczMNukQBlyE2f+ibHyIFbBXpmwMWAF7ZcrGh1gBs/9FhzDgIszMNikbA1bA7HLKxoAVsKdQ9xsecBF2mrIxYAXMLqdsDFgBM7NNOoQBF2H2vygbM1bAXpyyMWAF7MUpGzNWwOx/0SEMuAgzs03KxoAVMLucsjFgBewp1P2GB1yEnaZsDFgBs8spGwNWwMxskw5hwEWY/YOy8SFWwF6csjFgBezFKRsfYgXM/kGHMOAizMw2KRsDVsDscsrGgBWwp1D3Gx5wEXaasjFgBcwup2wMWAEzs006hAEXYfYPysaMFbDXp2wMWAF7fcrGjBUw+wcdwoCLMDPbpGwMWAGzyykbA1bAnkLdb3jARdhpysaAFTC7nLIxYAXMzDbpEAZchNn/p2zMWAH7FZSNAStgv4KyMWMFzP4/HcKAizAz26RsDFgBs8spGwNWwJ5C3W94wEXYacrGgBUwu5yyMWAFzMw26RAGXITZ/6dszFgB+xWUjQErYL+CsjFjBcz+Px3CgIswM9ukbAxYAbPLKRsDVsCeQt1veMBF2GnKxoAVMLucsjFgBczMNukQBlyE2QNlY8YK2G+hbAxYAfstlI0ZK2D2QIcw4CLMzDYpGwNWwOxyysaAFbCnUPcbHnARdpqyMWAFzC6nbAxYATOzTTqEARdh9kDZmLEC9lsoGwNWwH4LZWPGCpg90CEMuAgzs03KxoAVMLucsjFgBewp1P2GB1yEnaZsDFgBs8spGwNWwMxskw5hwEWYPVA2BqyA/SLKxoAVsF9E2RiwAmYPdAgDLsLMbJOyMWAFzC6nbAxYAXsKdb/hARdhpykbA1bA7HLKxoAVMDPbpEMYcBFm/6VszFgB+0WUjQErYL+IsjFjBcz+S4cw4CLMzDYpGwNWwOxyysaAFbCnUPcbHnARdpqyMWAFzC6nbAxYATOzTTqEARdh9l/KxoAVsN9F2RiwAva7KBsDVsDsv3QIAy7CzGyTsjFgBcwup2wMWAF7CnW/4QEXYacpGwNWwOxyysaAFTAz26RDGHARZv+hbMxYAftdlI0BK2C/i7IxYwXM/kOHMOAizMw2KRsDVsDscsrGgBWwp1D3Gx5wEXaasjFgBcwup2wMWAEzs006hAEXYfYfysaMFbDfRdkYsAL2uygbM1bA7D90CAMuwsxsk7IxYAXMLqdsDFgBewp1v+EBF2GnKRsDVsDscsrGgBUwM9ukQxhwEWaAsjFjBezXUTYGrID9OsrGjBUwA3QIAy7CzGyTsjFgBcwup2wMWAF7CnW/4QEXYacpGwNWwOxyysaAFTAz26RDGHARZoCyMWMF7NdRNgasgP06ysaMFTADdAgDLsLMbJOyMWAFzC6nbAxYAXsKdb/hARdhpykbA1bA7HLKxoAVMDPbpEMYcBFmgLIxYAXsN1I2BqyA/UbKxoAVMAN0CAMuwsxsk7IxYAXMLqdsDFgBewp1v+EBF2GnKRsDVsDscsrGgBUwM9ukQxhwEfb2lI0ZK2C/kbIxYAXsN1I2ZqyAvT0dwoCLMDPbpGwMWAGzyykbA1bAnkLdb3jARdhpysaAFTC7nLIxYAXMzDbpEAZchL09ZWPGCthvpGwMWAH7jZSNGStgb0+HMOAizMw2KRsDVsDscsrGgBWwp1D3Gx5wEXaasjFgBcwup2wMWAEzs006hAEXYe9N2ZixAvZLKRsDVsB+KWVjxgrYe9MhDLgIM7NNysaAFTC7nLIxYAXsKdT9hgdchJ2mbAxYAbPLKRsDVsDMbJMOYcBF2HtTNmasgP1SysaAFbBfStmYsQL23nQIAy7CzGyTsjFgBcwup2wMWAF7CnW/4QEXYacpGwNWwOxyysaAFTAz26RDGHAR9t6U/X/swcEJJMkOBNCIY6NzuyQryry0Qn7pHB8GFvoi6OrdyQ+V8R4GrIA9l7IxYAXsuZSNAStgZ9MlDLgIM7OblI0BK2C2nbIxYAXsJ9T7hQ9chH1N2RiwAmbbKRsDVsDM7CZdwoCLsIMpGzNWwJ5L2RiwAvZcysaMFbCD6RIGXISZ2U3KxoAVMNtO2RiwAvYT6v3CBy7CvqZsDFgBs+2UjQErYGZ2ky5hwEXYwZSNGStgz6VsDFgBey5lY8YK2MF0CQMuwszsJmVjwAqYbadsDFgB+wn1fuEDF2FfUzYGrIDZdsrGgBUwM7tJlzDgIuxgysaAFbBHUzYGrIA9mrIxYAXsYLqEARdhZnaTsjFgBcy2UzYGrID9hHq/8IGLsK8pGwNWwGw7ZWPACpiZ3aRLGHARdiplY8YK2KMpGwNWwB5N2ZixAnYqXcKAizAzu0nZGLACZtspGwNWwH5CvV/4wEXY15SNAStgtp2yMWAFzMxu0iUMuAg7lbIxYwXs0ZSNAStgj6ZszFgBO5UuYcBFmJndpGwMWAGz7ZSNAStgP6HeL3zgIuxrysaAFTDbTtkYsAJmZjfpEgZchJ1K2RiwAvZ0ysaAFbCnUzYGrICdSpcw4CLMzG5SNgasgNl2ysaAFbCfUO8XPnAR9jVlY8AKmG2nbAxYATOzm3QJAy7CTqVsDFgBezplY8AK2NMpGwNWwE6lSxhwEWZmNykbA1bAbDtlY8AK2E+o9wsfuAj7mrIxYAXMtlM2BqyAmdlNuoQBF2FHUjZmrIA9nbIxYAXs6ZSNGStgR9IlDLgIM7OblI0BK2C2nbIxYAXsJ9T7hQ9chH1N2RiwAmbbKRsDVsDM7CZdwoCLsCMpGwNWwA6gbAxYATuAsjFgBexIuoQBF2FmdpOyMWAFzLZTNgasgP2Eer/wgYuwrykbA1bAbDtlY8AKmJndpEsYcBF2JGVjwArYAZSNAStgB1A2BqyAHUmXMOAizMxuUjYGrIDZdsrGgBWwn1DvFz5wEfY1ZWPACphtp2wMWAEzs5t0CQMuws6jbMxYATuAsjFgBewAysaMFbDz6BIGXISZ2U3KxoAVMNtO2RiwAvYT6v3CBy7CvqZsDFgBs+2UjQErYGZ2ky5hwEXYeZSNGStgB1A2BqyAHUDZmLECdh5dwoCLMDO7SdkYsAJm2ykbA1bAfkK9X/jARdjXlI0BK2C2nbIxYAXMzG7SJQy4CDuPsjFgBewMysaAFbAzKBsDVsDOo0sYcBFmZjcpGwNWwGw7ZWPACthPqPcLH7gI+5qyMWAFzLZTNgasgJnZTbqEARdhh1E2ZqyAnUHZGLACdgZlY8YK2GF0CQMuwszsJmVjwAqYbadsDFgB+wn1fuEDF2FfUzYGrIDZdsrGgBUwM7tJlzDgIuwwysaMFbAzKBsDVsDOoGzMWAE7jC5hwEWYmd2kbAxYAbPtlI0BK2A/od4vfOAi7GvKxoAVMNtO2RiwAmZmN+kSBlyEHUbZGLACdgxlY8AK2DGUjQErYIfRJQy4CDOzm5SNAStgtp2yMWAF7CfU+4UPXIR9TdkYsAJm2ykbA1bAzOwmXcKAi7DDKBsDVsCOoWwMWAE7hrIxYAXsMLqEARdhZnaTsjFgBcy2UzYGrID9hHq/8IGLsK8pGwNWwGw7ZWPACpiZ3aRLGHARdhhlY8AK2DGUjQErYMdQNgasgB1GlzDgIszMblI2BqyA2XbKxoAVsJ9Q7xc+cBH2NWVjwAqYbadsDFgBM7ObdAkDLsJOomwMWAE7ibIxYAXsJMrGgBWwk+gSBlyEmdlNysaAFTDbTtkYsAL2E+r9wgcuwr6mbAxYAbPtlI0BK2BmdpMuYcBF2EmUjQErYCdRNgasgJ1E2RiwAnYSXcKAizAzu0nZGLACZtspGwNWwH5CvV/4wEXY15SNAStgtp2yMWAFzMxu0iUMuAg7ibIxYAXsJMrGgBWwkygbA1bATqJLGHARZmY3KRsDVsBsO2VjwArYT6j3Cx+4CPuasjFgBcy2UzYGrICZ2U26hAEXYSdRNgasgJ1E2RiwAnYSZWPACthJdAkDLsLM7CZlY8AKmG2nbAxYAfsJ9X7hAxdhX1M2BqyA2XbKxoAVMDO7SZcw4CLsGMrGjBWwkygbA1bATqJszFgBO4YuYcBFmJndpGwMWAGz7ZSNAStgP6HeL3zgIuxrysaAFTDbTtkYsAJmZjfpEgZchB1D2RiwAnYYZWPACthhlI0BK2DH0CUMuAgzs5uUjQErYLadsjFgBewn1PuFD1yEfU3ZGLACZtspGwNWwMzsJl3CgIuwYygbA1bADqNsDFgBO4yyMWAF7Bi6hAEXYWZ2k7IxYAXMtlM2BqyA/YR6v/CBi7CvKRsDVsBsO2VjwAqYmd2kSxhwEXYMZWPACthhlI0BK2CHUTYGrIAdQ5cw4CLMzG5SNgasgNl2ysaAFbCfUO8XPnAR9jVlY8AKmG2nbAxYATOzm3QJAy7CjqFsDFgBO4yyMWAF7DDKxoAVsGPoEgZchJnZTcrGgBUw207ZGLAC9hPq/cIHLsK+pmwMWAGz7ZSNAStgZnaTLmHARdgZlI0BK2DnUTYGrICdR9kYsAJ2Bl3CgIswM7tJ2RiwAmbbKRsDVsB+Qr1f+MBF2NeUjQErYLadsjFgBczMbtIlDLgIO4OyMWAF7DzKxoAVsPMoGwNWwM6gSxhwEWZmNykbA1bAbDtlY8AK2E+o9wsfuAj7mrIxYAXMtlM2BqyAmdlNuoQBF2FnUDYGrICdR9kYsAJ2HmVjwArYGXQJAy7CzOwmZWPACphtp2wMWAH7CfV+4QMXYV9TNgasgNl2ysaAFTAzu0mXMOAi7AzKxoAVsPMoGwNWwM6jbAxYATuDLmHARZiZ3aRsDFgBs+2UjQErYD+h3i984CLsa8rGgBUw207ZGLACZmY36RIGXISdQdkYsAJ2HmVjwArYeZSNAStgZ9AlDLgIM7OblI0BK2C2nbIxYAXsJ9T7hQ9chH1N2RiwAmbbKRsDVsDM7CZdwoCLsAMoGwNWwI6kbAxYATuSsjFgBewAuoQBF2FmdpOyMWAFzLZTNgasgP2Eer/wgYuwrykbA1bAbDtlY8AKmJndpEsYcBF2AGVjwArYkZSNAStgR1I2BqyAHUCXMOAizMxuUjYGrIDZdsrGgBWwn1DvFz5wEfY1ZWPACphtp2wMWAEzs5t0CQMuwg6gbAxYATuSsjFgBexIysaAFbAD6BIGXISZ2U3KxoAVMNtO2RiwAvYT6v3CBy7CvqZsDFgBs+2UjQErYGZ2ky5hwEXYAZSNAStgR1I2BqyAHUnZGLACdgBdwoCLMDO7SdkYsAJm2ykbA1bAfkK9X/jARdjXlI0BK2C2nbIxYAXMzG7SJQy4CDuAsjFgBexIysaAFbAjKRsDVsAOoEsYcBFmZjcpGwNWwGw7ZWPACthPqPcLH7gI+5qyMWAFzLZTNgasgJnZTbqEARdhB1A2BqyAHUnZGLACdiRlY8AK2AF0CQMuwszsJmVjwAqYbadsDFgB+wn1fuEDF2FfUzYGrIDZdsrGgBUwM7tJlzDgIuwAysaAFbAjKRsDVsCOpGwMWAE7gC5hwEWYmd2kbAxYAbPtlI0BK2A/od4vfOAi7GvKxoAVMNtO2RiwAmZmN+kSBlyEPZ2yMWMF7EjKxoAVsCMpGzNWwJ5OlzDgIszMblI2BqyA2XbKxoAVsJ9Q7xc+cBH2NWVjwAqYbadsDFgBM7ObdAkDLsKeTtkYsAJ2KmVjwArYqZSNAStgT6dLGHARZmY3KRsDVsBsO2VjwArYT6j3Cx+4CPuasjFgBcy2UzYGrICZ2U26hAEXYU+nbAxYATuVsjFgBexUysaAFbCn0yUMuAgzs5uUjQErYLadsjFgBewn1PuFD1yEfU3ZGLACZtspGwNWwMzsJl3CgIuwp1M2BqyAnUfZ+AIrYOdRNgasgD2dLmHARZiZ3aRsDFgBs+2UjQErYD+h3i984CLsa8rGgBUw207ZGLACZmY36RIGXIQ9nbIxYAXsJMrGTayAnUTZGLAC9nS6hAEXYWZ2k7IxYAXMtlM2BqyA/YR6v/CBi7CvKRsDVsBsO2VjwAqYmd2kSxhwEfZ0ysaAFbAzKBv/AitgZ1A2BqyAPZ0uYcBFmJndpGwMWAGz7ZSNAStgP6HeL3zgIuxrysaAFTDbTtkYsAJmZjfpEgZchD2dsjFgBezplI3/CCtgT6dsDFgBezpdwoCLMDO7SdkYsAJm2ykbA1bAfkK9X/jARdjXlI0BK2C2nbIxYAXMzG7SJQy4CHs6ZWPACtijKRv/KVbAHk3ZGLAC9nS6hAEXYWZ2k7IxYAXMtlM2BqyA/YR6v/CBi7CvKRsDVsBsO2VjwAqYmd2kSxhwEfZ0ysaAFbDnUjb+AlbAnkvZGLAC9nS6hAEXYWZ2k7IxYAXMtlM2BqyA/YR6v/CBi7CvKRsDVsBsO2VjwAqYmd2kSxhwEfZ0ysaAFbCHUjb+GlbAHkrZGLAC9nS6hAEXYWZ2k7IxYAXMtlM2BqyA/YR6v/CBi7CvKRsDVsBsO2VjwAqYmd2kSxhwEfZ0ysaAFbAnUjb+MlbAnkjZGLAC9nS6hAEXYWZ2k7IxYAXMtlM2BqyA/YR6v/CBi7CvKRsDVsBsO2VjwAqYmd2kSxhwEfZoysaAFbCHUjb+MlbAHkrZGLAC9mi6hAEXYWZ2k7IxYAXMtlM2BqyA/YR6v/CBi7CvKRsDVsBsO2VjwAqYmd2kSxhwEfZoysaAFbAnUja2YAXsiZSNAStgj6ZLGHARZmY3KRsDVsBsO2VjwArYT6j3Cx+4CPuasjFgBcy2UzYGrICZ2U26hAEXYY+mbAxYAXsiZWMLVsCeSNkYsAL2aLqEARdhZnaTsjFgBcy2UzYGrID9hHq/8IGLsK8pGwNWwGw7ZWPACpiZ3aRLGHAR9mjKxoAVsMdRNjZiBexxlI0BK2CPpksYcBFmZjcpGwNWwGw7ZWPACthPqPcLH7gI+5qyMWAFzLZTNgasgJnZTbqEARdhj6ZsDFgBexxlYyNWwB5H2RiwAvZouoQBF2FmdpOyMWAFzLZTNgasgP2Eer/wgYuwrykbA1bAbDtlY8AKmJndpEsYcBH2aMrGgBWwZ1E2tmMF7FmUjQErYI+mSxhwEWZmNykbA1bAbDtlY8AK2E+o9wsfuAj7mrIxYAXMtlM2BqyAmdlNuoQBF2GPpmwMWAF7FmVjO1bAnkXZGLAC9mi6hAEXYWZ2k7IxYAXMtlM2BqyA/YR6v/CBi7CvKRsDVsBsO2VjwAqYmd2kSxhwEfZoysaAFbBnUTa2YwXsWZSNAStgj6ZLGHARZmY3KRsDVsBsO2VjwArYT6j3Cx+4CPuasjFgBcy2UzYGrICZ2U26hAEXYY+mbAxYAXsWZWM7VsCeRdkYsAL2aLqEARdhZnaTsjFgBcy2UzYGrID9hHq/8IGLsK8pGwNWwGw7ZWPACpiZ3aRLGHAR9mjKxoAVsGdRNrZjBexZlI0BK2CPpksYcBFmZjcpGwNWwGw7ZWPACthPqPcLH7gI+5qyMWAFzLZTNgasgJnZTbqEARdhj6ZsDFgBexZlYztWwJ5F2RiwAvZouoQBF2FmdpOyMWAFzLZTNgasgP2Eer/wgYuwrykbA1bAbDtlY8AKmJndpEsYcBH2aMrGgBWwB1E2/k9YAXsQZWPACtij6RIGXISZ2U3KxoAVMNtO2RiwAvYT6v3CBy7CvqZsDFgBs+2UjQErYGZ2ky5hwEXYoykbA1bAnkXZ2I4VsGdRNgasgD2aLmHARZiZ3aRsDFgBs+2UjQErYD+h3i984CLsa8rGgBUw207ZGLACZmY36RIGXIQ9mrIxYAXsWZSN7VgBexZlY8AK2KPpEgZchJnZTcrGgBUw207ZGLAC9hPq/cIHLsK+pmwMWAGz7ZSNAStgZnaTLmHARdijKRsDVsCeRdnYjhWwZ1E2BqyAPZouYcBFmJndpGwMWAGz7ZSNAStgP6HeL3zgIuxrysaAFTDbTtkYsAJmZjfpEgZchD2asjFgBexZlI3tWAF7FmVjwArYo+kSBlyEmdlNysaAFTDbTtkYsAL2E+r9wgcuwr6mbAxYAbPtlI0BK2BmdpMuYcBF2KMpGwNWwJ5F2diOFbBnUTYGrIA9mi5hwEWYmd2kbAxYAbPtlI0BK2A/od4vfOAi7GvKxoAVMNtO2RiwAmZmN+kSBlyEPZqyMWAF7FmUje1YAXsWZWPACtij6RIGXISZ2U3KxoAVMNtO2RiwAvYT6v3CBy7CvqZsDFgBs+2UjQErYGZ2ky5hwEXYoykbA1bAHkfZ2IgVsMdRNgasgD2aLmHARZiZ3aRsDFgBs+2UjQErYD+h3i984CLsa8rGgBUw207ZGLACZmY36RIGXIQ9mrIxYAXscZSNjVgBexxlY8AK2KPpEgZchJnZTcrGgBUw207ZGLAC9hPq/cIHLsK+pmwMWAGz7ZSNAStgZnaTLmHARdijKRsDVsCeSNnYghWwJ1I2BqyAPZouYcBFmJndpGwMWAGz7ZSNAStgP6HeL3zgIuxrysaAFTDbTtkYsAJmZjfpEgZchD2asjFgBeyJlI0tWAF7ImVjwArYo+kSBlyEmdlNysaAFTDbTtkYsAL2E+r9wgcuwr6mbAxYAbPtlI0BK2BmdpMuYcBF2KMpGwNWwB5K2fjLWAF7KGVjwArYo+kSBlyEmdlNysaAFTDbTtkYsAL2E+r9wgcuwr6mbAxYAbPtlI0BK2BmdpMuYcBF2NMpGwNWwJ5I2fjLWAF7ImVjwArY0+kSBlyEmdlNysaAFTDbTtkYsAL2E+r9wgcuwr6mbAxYAbPtlI0BK2BmdpMuYcBF2NMpGwNWwB5K2fhrWAF7KGVjwArY0+kSBlyEmdlNysaAFTDbTtkYsAL2E+r9wgcuwr6mbAxYAbPtlI0BK2BmdpMuYcBF2NMpGwNWwJ5L2fgLWAF7LmVjwArY0+kSBlyEmdlNysaAFTDbTtkYsAL2E+r9wgcuwr6mbAxYAbPtlI0BK2BmdpMuYcBF2NMpGwNWwB5N2fhPsQL2aMrGgBWwp9MlDLgIM7OblI0BK2C2nbIxYAXsJ9T7hQ9chH1N2RiwAmbbKRsDVsDM7CZdwoCLsKdTNgasgD2dsvEfYQXs6ZSNAStgT6dLGHARZmY3KRsDVsBsO2VjwArYT6j3Cx+4CPuasjFgBcy2UzYGrICZ2U26hAEXYU+nbAxYATuDsvEvsAJ2BmVjwArY0+kSBlyEmdlNysaAFTDbTtkYsAL2E+r9wgcuwr6mbAxYAbPtlI0BK2BmdpMuYcBF2NMpGwNWwE6ibNzECthJlI0BK2BPp0sYcBFmZjcpGwNWwGw7ZWPACthPqPcLH7gI+5qyMWAFzLZTNgasgJnZTbqEARdhT6dsDFgBO4+y8QVWwM6jbAxYAXs6XcKAizAzu0nZGLACZtspGwNWwH5CvV/4wEXY15SNAStgtp2yMWAFzMxu0iUMuAh7OmVjwArYqZSNAStgp1I2BqyAPZ0uYcBFmJndpGwMWAGz7ZSNAStgP6HeL3zgIuxrysaAFTDbTtkYsAJmZjfpEgZchD2dsjFgBexUysaAFbBTKRsDVsCeTpcw4CLMzG5SNgasgNl2ysaAFbCfUO8XPnAR9jVlY8AKmG2nbAxYATOzm3QJAy7Cnk7ZmLECdiRlY8AK2JGUjRkrYE+nSxhwEWZmNykbA1bAbDtlY8AK2E+o9wsfuAj7mrIxYAXMtlM2BqyAmdlNuoQBF2EHUDYGrIAdSdkYsAJ2JGVjwArYAXQJAy7CzOwmZWPACphtp2wMWAH7CfV+4QMXYV9TNgasgNl2ysaAFTAzu0mXMOAi7ADKxoAVsCMpGwNWwI6kbAxYATuALmHARZiZ3aRsDFgBs+2UjQErYMsyCxIAACAASURBVD+h3i984CLsa8rGgBUw207ZGLACZmY36RIGXIQdQNkYsAJ2JGVjwArYkZSNAStgB9AlDLgIM7OblI0BK2C2nbIxYAXsJ9T7hQ9chH1N2RiwAmbbKRsDVsDM7CZdwoCLsAMoGwNWwI6kbAxYATuSsjFgBewAuoQBF2FmdpOyMWAFzLZTNgasgP2Eer/wgYuwrykbA1bAbDtlY8AKmJndpEsYcBF2AGVjwArYkZSNAStgR1I2BqyAHUCXMOAizMxuUjYGrIDZdsrGgBWwn1DvFz5wEfY1ZWPACphtp2wMWAEzs5t0CQMuwg6gbAxYATuSsjFgBexIysaAFbAD6BIGXISZ2U3KxoAVMNtO2RiwAvYT6v3CBy7CvqZsDFgBs+2UjQErYGZ2ky5hwEXYAZSNAStgR1I2BqyAHUnZGLACdgBdwoCLMDO7SdkYsAJm2ykbA1bAfkK9X/jARdjXlI0BK2C2nbIxYAXMzG7SJQy4CDuDsjFgBew8ysaAFbDzKBsDVsDOoEsYcBFmZjcpGwNWwGw7ZWPACthPqPcLH7gI+5qyMWAFzLZTNgasgJnZTbqEARdhZ1A2BqyAnUfZGLACdh5lY8AK2Bl0CQMuwszsJmVjwAqYbadsDFgB+wn1fuEDF2FfUzYGrIDZdsrGgBUwM7tJlzDgIuwMysaAFbDzKBsDVsDOo2wMWAE7gy5hwEWYmd2kbAxYAbPtlI0BK2A/od4vfOAi7GvKxoAVMNtO2RiwAmZmN+kSBlyEnUHZGLACdh5lY8AK2HmUjQErYGfQJQy4CDOzm5SNAStgtp2yMWAF7CfU+4UPXIR9TdkYsAJm2ykbA1bAzOwmXcKAi7AzKBszVsAOo2wMWAE7jLIxYwXsDLqEARdhZnaTsjFgBcy2UzYGrID9hHq/8IGLsK8pGwNWwGw7ZWPACpiZ3aRLGHARdgZlY8YK2GGUjQErYIdRNmasgJ1BlzDgIszMblI2BqyA2XbKxoAVsJ9Q7xc+cBH2NWVjwAqYbadsDFgBM7ObdAkDLsKOoWwMWAE7jLIxYAXsMMrGgBWwY+gSBlyEmdlNysaAFTDbTtkYsAL2E+r9wgcuwr6mbAxYAbPtlI0BK2BmdpMuYcBF2DGUjQErYIdRNgasgB1G2RiwAnYMXcKAizAzu0nZGLACZtspGwNWwH5CvV/4wEXY15SNAStgtp2yMWAFzMxu0iUMuAg7hrIxYAXsMMrGgBWwwygbA1bAjqFLGHARZmY3KRsDVsBsO2VjwArYT6j3Cx+4CPuasjFgBcy2UzYGrICZ2U26hAEXYcdQNmasgJ1E2RiwAnYSZWPGCtgxdAkDLsLM7CZlY8AKmG2nbAxYAfsJ9X7hAxdhX1M2BqyA2XbKxoAVMDO7SZcw4CLsJMrGgBWwkygbA1bATqJsDFgBO4kuYcBFmJndpGwMWAGz7ZSNAStgP6HeL3zgIuxrysaAFTDbTtkYsAJmZjfpEgZchJ1E2RiwAnYSZWPACthJlI0BK2An0SUMuAgzs5uUjQErYLadsjFgBewn1PuFD1yEfU3ZGLACZtspGwNWwMzsJl3CgIuwkygbA1bATqJsDFgBO4myMWAF7CS6hAEXYWZ2k7IxYAXMtlM2BqyA/YR6v/CBi7CvKRsDVsBsO2VjwAqYmd2kSxhwEXYSZWPGCtgxlI0BK2DHUDZmrICdRJcw4CLMzG5SNgasgNl2ysaAFbCfUO8XPnAR9jVlY8AKmG2nbAxYATOzm3QJAy7CTqJszFgBO4ayMWAF7BjKxowVsJPoEgZchJnZTcrGgBUw207ZGLAC9hPq/cIHLsK+pmwMWAGz7ZSNAStgZnaTLmHARdhhlI0BK2DHUDYGrIAdQ9kYsAJ2GF3CgIswM7tJ2RiwAmbbKRsDVsB+Qr1f+MBF2NeUjQErYLadsjFgBczMbtIlDLgIO4yyMWAF7BjKxoAVsGMoGwNWwA6jSxhwEWZmNykbA1bAbDtlY8AK2E+o9wsfuAj7mrIxYAXMtlM2BqyAmdlNuoQBF2GHUTZmrICdQdkYsAJ2BmVjxgrYYXQJAy7CzOwmZWPACphtp2wMWAH7CfV+4QMXYV9TNgasgNl2ysaAFTAzu0mXMOAi7DDKxowVsDMoGwNWwM6gbMxYATuMLmHARZiZ3aRsDFgBs+2UjQErYD+h3i984CLsa8rGgBUw207ZGLACZmY36RIGXISdR9kYsAJ2BmVjwArYGZSNAStg59ElDLgIM7OblI0BK2C2nbIxYAXsJ9T7hQ9chH1N2RiwAmbbKRsDVsDM7CZdwoCLsPMoGzNWwA6gbAxYATuAsjFjBew8uoQBF2FmdpOyMWAFzLZTNgasgP2Eer/wgYuwrykbA1bAbDtlY8AKmJndpEsYcBF2HmVjxgrYAZSNAStgB1A2ZqyAnUeXMOAizMxuUjYGrIDZdsrGgBWwn1DvFz5wEfY1ZWPACphtp2wMWAEzs5t0CQMuwo6kbAxYATuAsjFgBewAysaAFbAj6RIGXISZ2U3KxoAVMNtO2RiwAvYT6v3CBy7CvqZsDFgBs+2UjQErYGZ2ky5hwEXYkZSNAStgB1A2BqyAHUDZGLACdiRdwoCLMDO7SdkYsAJm2ykbA1bAfkK9X/jARdjXlI0BK2C2nbIxYAXMzG7SJQy4CDuSsjFjBezplI0BK2BPp2zMWAE7ki5hwEWYmd2kbAxYAbPtlI0BK2A/od4vfOAi7GvKxoAVMNtO2RiwAmZmN+kSBlyEnUrZGLAC9nTKxoAVsKdTNgasgJ1KlzDgIszMblI2BqyA2XbKxoAVsJ9Q7xc+cBH2NWVjwAqYbadsDFgBM7ObdAkDLsJOpWwMWAF7OmVjwArY0ykbA1bATqVLGHARZmY3KRsDVsBsO2VjwArYT6j3Cx+4CPuasjFgBcy2UzYGrICZ2U26hAEXYadSNmasgD2asjFgBezRlI0ZK2Cn0iUMuAgzs5uUjQErYLadsjFgBewn1PuFD1yEfU3ZGLACZtspGwNWwMzsJl3CgIuwUykbM1bAHk3ZGLAC9mjKxowVsFPpEgZchJnZTcrGgBUw207ZGLAC9hPq/cIHLsK+pmwMWAGz7ZSNAStgZnaTLmHARdjBlI0BK2CPpmwMWAF7NGVjwArYwXQJAy7CzOwmZWPACphtp2wMWAH7CfV+4QMXYV9TNgasgNl2ysaAFTAzu0mXMOAi7GDKxowVsOdSNgasgD2XsjFjBexguoQBF2FmdpOyMWAFzLZTNgasgP2Eer/wgYuwrykbA1bAbDtlY8AKmJndpEsYcBF2MGVjxgrYcykbA1bAnkvZmLECdjBdwoCLMDO7SdkYsAJm2ykbA1bAfkK9X/jARdjXlI0BK2C2nbIxYAXMzG7SJQy4CDubsjFgBey5lI0BK2DPpWwMWAE7my5hwEWYmd2kbAxYAbPtlI0BK2A/od4vfOAi7GvKxoAVMNtO2RiwAmZmN+kSBlyEnU3ZmLEC9lDKxoAVsIdSNmasgJ1NlzDgIszMblI2BqyA2XbKxoAVsJ9Q7xc+cBH2NWVjwAqYbadsDFgBM7ObdAkDLsKOp2wMWAF7KGVjwArYQykbA1bAjqdLGHARZmY3KRsDVsBsO2VjwArYT6j3Cx+4CPuasjFgBcy2UzYGrICZ2U26hAEXYcdTNmasgD2RsjFgBeyJlI0ZK2DH0yUMuAgzs5uUjQErYLadsjFgBewn1PuFD1yEfU3ZGLACZtspGwNWwMzsJl3CgIuw4ykbM1bAnkjZGLAC9kTKxowVsOPpEgZchJnZTcrGgBUw207ZGLAC9hPq/cIHLsK+pmwMWAGz7ZSNAStgZnaTLmHARZgBysaAFbAnUjYGrIA9kbIxYAXMAF3CgIswM7tJ2RiwAmbbKRsDVsB+Qr1f+MBF2NeUjQErYLadsjFgBczMbtIlDLgIM0DZmLEC9jjKxoAVsMdRNmasgBmgSxhwEWZmNykbA1bAbDtlY8AK2E+o9wsfuAj7mrIxYAXMtlM2BqyAmdlNuoQBF2H2h7IxYAXscZSNAStgj6NsDFgBsz90CQMuwszsJmVjwAqYbadsDFgB+wn1fuEDF2FfUzYGrIDZdsrGgBUwM7tJlzDgIsz+UDZmrIA9i7IxYAXsWZSNGStg9ocuYcBFmJndpGwMWAGz7ZSNAStgP6HeL3zgIuxrysaAFTDbTtkYsAJmZjfpEgZchNkfysaMFbBnUTYGrIA9i7IxYwXM/tAlDLgIM7OblI0BK2C2nbIxYAXsJ9T7hQ9chH1N2RiwAmbbKRsDVsDM7CZdwoCLMPuHsjFjBexBlI0BK2APomzMWAGzf+gSBlyEmdlNysaAFTDbTtkYsAL2E+r9wgcuwr6mbAxYAbPtlI0BK2BmdpMuYcBFmP1D2ZixAvYgysaAFbAHUTZmrIDZP3QJAy7CzOwmZWPACphtp2wMWAH7CfV+4QMXYV9TNgasgNl2ysaAFTAzu0mXMOAizD4oGwNWwB5E2RiwAvYgysaAFTD7oEsYcBFmZjcpGwNWwGw7ZWPACthPqPcLH7gI+5qyMWAFzLZTNgasgJnZTbqEARdh9kHZmLEC9hTKxoAVsKdQNmasgNkHXcKAizAzu0nZGLACZtsp/8ceHNw4Eu1Yu917KHAsl44VYd6xgibdOXvKBzzgB9S4zSyFqioqlfrWKg2cIbzEfb/pgbeFp/UqDZwh4HK9SgNnCABO6qM18LaAB71KM2cIP0Wv0sAZwk/RqzRzhoAHfbQG3hYAnNSrNHCGgMv1Kg2cIbzEfb/pgbeFp/UqDZwh4HK9SgNnCABO6qM18LaA/61XaeYM4UfoVRo4Q/gRepVmzhDwv/XRGnhbAHBSr9LAGQIu16s0cIbwEvf9pgfeFp7WqzRwhoDL9SoNnCEAOKmP1sDbAv63XqWZM4QfoVdp4AzhR+hVmjlDwP/WR2vgbQHASb1KA2cIuFyv0sAZwkvc95seeFt4Wq/SwBkCLterNHCGAOCkPloDbwv4L71KM2cI769XaeAM4f31Ks2cIeC/9NEaeFsAcFKv0sAZAi7XqzRwhvAS9/2mB94WntarNHCGgMv1Kg2cIQA4qY/WwNsC/kuv0pecIby5XqWBM4Q316v0JWcI+C99tAbeFgCc1Ks0cIaAy/UqDZwhvMR9v+mBt4Wn9SoNnCHgcr1KA2cIAE7qozXwtoD/S6/SzBnCm+tVGjhDeHO9SjNnCPi/9NEaeFsAcFKv0sAZAi7XqzRwhvAS9/2mB94WntarNHCGgMv1Kg2cIQA4qY/WwNsC/i+9Sl9yhvDOepUGzhDeWa/Sl5wh4P/SR2vgbQHASb1KA2cIuFyv0sAZwkvc95seeFt4Wq/SwBkCLterNHCGAOCkPloDbwsY9CrNnCG8s16lgTOEd9arNHOGgEEfrYG3BQAn9SoNnCHgcr1KA2cIL3Hfb3rgbeFpvUoDZwi4XK/SwBkCgJP6aA28LWDQq/QlZwhvq1dp4AzhbfUqfckZAgZ9tAbeFgCc1Ks0cIaAy/UqDZwhvMR9v+mBt4Wn9SoNnCHgcr1KA2cIAE7qozXwtoBZr9LMGcLb6lUaOEN4W71KM2cImPXRGnhbAHBSr9LAGQIu16s0cIbwEvf9pgfeFp7WqzRwhoDL9SoNnCEAOKmP1sDbAma9Sl9yhvCeepUGzhDeU6/Sl5whYNZHa+BtAcBJvUoDZwi4XK/SwBnCS9z3mx54W3har9LAGQIu16s0cIYA4KQ+WgNvC/hSr9LMGcJ76lUaOEN4T71KM2cI+FIfrYG3BQAn9SoNnCHgcr1KA2cIL3Hfb3rgbeFpvUoDZwi4XK/SwBkCgJP6aA28LeBLvUpfcobwhnqVBs4Q3lCv0pecIeBLfbQG3hYAnNSrNHCGgMv1Kg2cIbzEfb/pgbeFp/UqDZwh4HK9SgNnCABO6qM18LaAX+lVmjlDeEO9SgNnCG+oV2nmDAG/0kdr4G0BwEm9SgNnCLhcr9LAGcJL3PebHnhbeFqv0sAZAi7XqzRwhgDgpD5aA28LeEKv0swZwrvpVRo4Q3g3vUozZwh4Qh+tgbcFACf1Kg2cIeByvUoDZwgvcd9veuBt4Wm9SgNnCLhcr9LAGQKAk/poDbwt4Am9SjNnCO+mV2ngDOHd9CrNnCHgCX20Bt4WAJzUqzRwhoDL9SoNnCG8xH2/6YG3haf1Kg2cIeByvUoDZwgATuqjNfC2gOf0Ks2cIbyVXqWBM4S30qs0c4aA5/TRGnhbAHBSr9LAGQIu16s0cIbwEvf9pgfeFp7WqzRwhoDL9SoNnCEAOKmP1sDbAp7Tq/QlZwjvo1dp4AzhffQqfckZAp7TR2vgbQHASb1KA2cIuFyv0sAZwkvc95seeFt4Wq/SwBkCLterNHCGAOCkPloDbwt4Wq/SzBnC++hVGjhDeB+9SjNnCHhaH62BtwUAJ/UqDZwh4HK9SgNnCC9x32964G3hab1KA2cIuFyv0sAZAoCT+mgNvC3gjF6lmTOEN9GrNHCG8CZ6lWbOEHBGH62BtwUAJ/UqDZwh4HK9SgNnCC9x32964G3hab1KA2cIuFyv0sAZAoCT+mgNvC3gjF6lLzlDeAe9SgNnCO+gV+lLzhBwRh+tgbcFACf1Kg2cIeByvUoDZwgvcd9veuBt4Wm9SgNnCLhcr9LAGQKAk/poDbwt4KRepZkzhHfQqzRwhvAOepVmzhBwUh+tgbcFACf1Kg2cIeByvUoDZwgvcd9veuBt4Wm9SgNnCLhcr9LAGQKAk/poDbwt4LxepZkzhG+vV2ngDOHb61WaOUPAeX20Bt4WAJzUqzRwhoDL9SoNnCG8xH2/6YG3haf1Kg2cIeByvUoDZwgATuqjNfC2gPN6lb7kDOF761UaOEP43nqVvuQMAef10Rp4WwBwUq/SwBkCLterNHCG8BL3/aYH3hae1qs0cIaAy/UqDZwhADipj9bA2wJe0qs0c4bwvfUqDZwhfG+9SjNnCHhJH62BtwUAJ/UqDZwh4HK9SgNnCC9x32964G3hab1KA2cIuFyv0sAZAoCT+mgNvC3gJb1KX3KG8I31Kg2cIXxjvUpfcoaAl/TRGnhbAHBSr9LAGQIu16s0cIbwEvf9pgfeFp7WqzRwhoDL9SoNnCEAOKmP1sDbAl7Vq/QlZwjfVa/SwBnCd9Wr9CVnCHhVH62BtwUAJ/UqDZwh4HK9SgNnCC9x32964G3hab1KA2cIuFyv0sAZAoCT+mgNvC3gN/QqzZwhfFe9SgNnCN9Vr9LMGQJ+Qx+tgbcFACf1Kg2cIeByvUoDZwgvcd9veuBt4Wm9SgNnCLhcr9LAGQKAk/poDbwt4Df0Kn3JGcK31Ks0cIbwLfUqfckZAn5DH62BtwUAJ/UqDZwh4HK9SgNnCC9x32964G3hab1KA2cIuFyv0sAZAoCT+mgNvC3g9/QqfckZwvfTqzRwhvD99Cp9yRkCfk8frYG3BQAn9SoNnCHgcr1KA2cIL3Hfb3rgbeFpvUoDZwi4XK/SwBkCgJP6aA28LeD39Cr9ijOEb6ZXaeAM4ZvpVfoVZwj4PX20Bt4WAJzUqzRwhoDL9SoNnCG8xH2/6YG3haf1Kg2cIeByvUoDZwgATuqjNfC2gN/Wq/QrzhC+k16lgTOE76RX6VecIeC39dEaeFsAcFKv0sAZAi7XqzRwhvAS9/2mB94WntarNHCGgMv1Kg2cIQA4qY/WwNsC/oRepS85Q/hOepUGzhC+k16lLzlDwJ/QR2vgbQHASb1KA2cIuFyv0sAZwkvc95seeFt4Wq/SwBkCLterNHCGAOCkPloDbwv4Q3qVvuQM4dvoVRo4Q/g2epW+5AwBf0gfrYG3BQAn9SoNnCHgcr1KA2cIL3Hfb3rgbeFpvUoDZwi4XK/SwBkCgJP6aA28LeAP6VX6FWcI30Ov0sAZwvfQq/QrzhDwh/TRGnhbAHBSr9LAGQIu16s0cIbwEvf9pgfeFp7WqzRwhoDL9SoNnCEAOKmP1sDbAv6cXqVfcYbwDfQqDZwhfAO9Sr/iDAF/Th+tgbcFACf1Kg2cIeByvUoDZwgvcd9veuBt4Wm9SgNnCLhcr9LAGQKAk/poDbwt4I/qVfqSM4RvoFdp4AzhG+hV+pIzBPxRfbQG3hYAnNSrNHCGgMv1Kg2cIbzEfb/pgbeFp/UqDZwh4HK9SgNnCABO6qM18LaAP61X6UvOEP61XqWBM4R/rVfpS84Q8Kf10Rp4WwBwUq/SwBkCLterNHCG8BL3/aYH3hae1qs0cIaAy/UqDZwhADipj9bA2wL+gl6lLzlD+Kd6lQbOEP6pXqUvOUPAX9BHa+BtAcBJvUoDZwi4XK/SwBnCS9z3mx54W3har9LAGQIu16s0cIYA4KQ+WgNvC/gLepV+xRnCv9OrNHCG8O/0Kv2KMwT8BX20Bt4WAJzUqzRwhoDL9SoNnCG8xH2/6YG3haf1Kg2cIeByvUoDZwgATuqjNfC2gL+jV+lXnCH8I71KA2cI/0iv0q84Q8Df0Udr4G0BwEm9SgNnCLhcr9LAGcJL3PebHnhbeFqv0sAZAi7XqzRwhgDgpD5aA28L+Gt6lX7FGcK/0Ks0cIbwL/Qq/YozBPw1fbQG3hYAnNSrNHCGgMv1Kg2cIbzEfb/pgbeFp/UqDZwh4HK9SgNnCABO6qM18LaAv6lX6VecIVyuV2ngDOFyvUq/4gwBf1MfrYG3BQAn9SoNnCHgcr1KA2cIL3Hfb3rgbeFpvUoDZwi4XK/SwBkCgJP6aA28LeAv61X6FWcI1+pVGjhDuFav0q84Q8Bf1kdr4G0BwEm9SgNnCLhcr9LAGcJL3PebHnhbeFqv0sAZAi7XqzRwhgDgpD5aA28L+Pt6lb7kDOFavUoDZwjX6lX6kjME/H19tAbeFgCc1Ks0cIaAy/UqDZwhvMR9v+mBt4Wn9SoNnCHgcr1KA2cIAE7qozXwtoBL9Cp9yRnChXqVBs4QLtSr9CVnCLhEH62BtwUAJ/UqDZwh4HK9SgNnCC9x32964G3hab1KA2cIuFyv0sAZAoCT+mgNvC3gKr1KX3KGcJVepYEzhKv0Kn3JGQKu0kdr4G0BwEm9SgNnCLhcr9LAGcJL3PebHnhbeFqv0sAZAi7XqzRwhgDgpD5aA28LuFCv0pecIVyiV2ngDOESvUpfcoaAC/XRGnhbAHBSr9LAGQIu16s0cIbwEvf9pgfeFp7WqzRwhoDL9SoNnCEAOKmP1sDbAi7Uq/QrzhD+vl6lgTOEv69X6VecIeBCfbQG3hYAnNSrNHCGgMv1Kg2cIbzEfb/pgbeFp/UqDZwh4HK9SgNnCABO6qM18LaAa/Uq/YozhL+sV2ngDOEv61X6FWcIuFYfrYG3BQAn9SoNnCHgcr1KA2cIL3Hfb3rgbeFpvUoDZwi4XK/SwBkCgJP6aA28LeByvUpPcIbw1/QqDZwh/DW9Sk9whoDL9dEaeFsAcFKv0sAZAi7XqzRwhvAS9/2mB94WntarNHCGgMv1Kg2cIQA4qY/WwNsC/oVepSc4Q/g7epUGzhD+jl6lJzhDwL/QR2vgbQHASb1KA2cIuFyv0sAZwkvc95seeFt4Wq/SwBkCLterNHCGAOCkPloDbwv4R3qVnuAM4S/oVRo4Q/gLepWe4AwB/0gfrYG3BQAn9SoNnCHgcr1KA2cIL3Hfb3rgbeFpvUoDZwi4XK/SwBkCgJP6aA28LeDf6VV6gjOEP61XaeAM4U/rVXqCMwT8O320Bt4WAJzUqzRwhoDL9SoNnCG8xH2/6YG3haf1Kg2cIeByvUoDZwgATuqjNfC2gH+qV+kJzhD+qF6lgTOEP6pX6QnOEPBP9dEaeFsAcFKv0sAZAi7XqzRwhvAS9/2mB94WntarNHCGgMv1Kg2cIQA4qY/WwNsC/rVepSc4Q/hzepUGzhD+nF6lJzhDwL/WR2vgbQHASb1KA2cIuFyv0sAZwkvc95seeFt4Wq/SwBkCLterNHCGAOCkPloDbwv4BnqVnuAM4Q/pVRo4Q/hDepWe4AwB30AfrYG3BQAn9SoNnCHgcr1KA2cIL3Hfb3rgbeFpvUoDZwi4XK/SwBkCgJP6aA28LeB76FV6gjOEP6FXaeAM4U/oVXqCMwR8D320Bt4WAJzUqzRwhoDL9SoNnCG8xH2/6YG3haf1Kg2cIeByvUoDZwgATuqjNfC2gG+jV+kJzhB+W6/SwBnCb+tVeoIzBHwbfbQG3hYAnNSrNHCGgMv1Kg2cIbzEfb/pgbeFp/UqDZwh4HK9SgNnCABO6qM18LaA76RX6TnOEH5Dr9LAGcLv6VV6gjMEfCd9tAbeFgCc1Ks0cIaAy/UqDZwhvMR9v+mBt4Wn9SoNnCHgcr1KA2cIAE7qozXwtoBvplfpOc4QXtWrNHCG8Bt6lZ7gDAHfTB+tgbcFACf1Kg2cIeByvUoDZwgvcd9veuBt4Wm9SgNnCLhcr9LAGQKAk/poDbwt4PvpVXqOM4SX9CoNnCG8pFfpOc4Q8P300Rp4WwBwUq/SwBkCLterNHCG8BL3/aYH3hae1qs0cIaAy/UqDZwhADipj9bA2wK+pV6l5zhDOK9XaeAM4bxepec4Q8C31Edr4G0BwEm9SgNnCLhcr9LAGcJL3PebHnhbeFqv0sAZAi7XqzRwhgDgpD5aA28L+K56lZ7mDOGMXqWBM4STepWe4wwB31UfrYG3BQAn9SoNnCHgcr1KA2cIL3Hfb3rgbeFpvUoDZwi4XK/SwBkCgJP6aA28LeB761V6jjOEp/UqDZwhPK1X6TnOEPC99dEaeFsAcFKv0sAZAi7XqzRwhvAS9/2mB94WntarNHCGgMv1Kg2cIQA4qY/WwNsCvr1epec4Q3hOr9LAGcJzepWe4wwB314frYG3BQAn9SoNnCHgcr1KA2cIL3Hfb3rgbeFpvUoDZwi4XK/SwBkCgJP6aA28LeAd9Co9zRnCr/QqDZwhPKFXvZg6pwAAIABJREFU6TnOEPAO+mgNvC0AOKlXaeAMAZfrVRo4Q3iJ+37TA28LT+tVGjhDwOV6lQbOEACc1Edr4G0Bb6JX6WnOEL7UqzRwhvClXqWnOUPAm+ijNfC2AOCkXqWBMwRcrldp4AzhJe77TQ+8LTytV2ngDAGX61UaOEMAcFIfrYG3BbyVXqXnOEOY9SoNnCHMepWe5gwB76OP1sDbAoCTepUGzhBwuV6lgTOEl7jvNz3wtvC0XqWBMwRcrldp4AwBwEl9tAbeFvBuepWe5gzh/9KrNHCGMOhVeo4zBLybPloDbwsATupVGjhDwOV6lQbOEF7ivt/0wNvC03qVBs4QcLlepYEzBAAn9dEaeFvAG+pVepozhP/SqzRwhvBfepWe5gwBb6iP1sDbAoCTepUGzhBwuV6lgTOEl7jvNz3wtvC0XqWBMwRcrldp4AwBwEl9tAbeFvCeepXOcIbwoFdp4AzhQa/SGc4Q8J76aA28LQA4qVdp4AwBl+tVGjhDeIn7ftMDbwtP61UaOEPA5XqVBs4QAJzUR2vgbQHvrFfpac4Q/p9epYEzhP+nV+kMZwh4W320Bt4WAJzUqzRwhoDL9SoNnCG8xH2/6YG3haf1Kg2cIeByvUoDZwgATuqjNfC2gDfXq3SGMwSpV2ngDEHqVTrDGQLeXB+tgbcFACf1Kg2cIeByvUoDZwgvcd9veuBt4Wm9SgNnCLhcr9LAGQKAk/poDbwt4P31Kp3kDH22XqWBM/TxepXOcIaA99dHa+BtAcBJvUoDZwi4XK/SwBnCS9z3mx54W3har9LAGQIu16s0cIYA4KQ+WgNvC/gRepVOcoY+WK/SwBn6YL1KJzlDwI/QR2vgbQHASb1KA2cIuFyv0sAZwkvc95seeFt4Wq/SwBkCLterNHCGAOCkPloDbwv4QXqVTnKGPlKv0sAZ+ki9Sic5Q8AP0kdr4G0BwEm9SgNnCLhcr9LAGcJL3PebHnhbeFqv0sAZAi7XqzRwhgDgpD5aA28L+HF6lU5yhj5Mr9LAGfowvUonOUPAj9NHa+BtAcBJvUoDZwi4XK/SwBnCS9z3mx54W3har9LAGQIu16s0cIYA4KQ+WgNvC/ihepVOcoY+Rq/SwBn6GL1K5zlDwE/UR2vgbQHASb1KA2cIuFyv0sAZwkvc95seeFt4Wq/SwBkCLterNHCGAOCkPloDbwv4uXqVznOGPkCv0sAZ+gC9Suc5Q8DP1Udr4G0BwEm9SgNnCLhcr9LAGcJL3PebHnhbeFqv0sAZAi7XqzRwhgDgpD5aA28L+Ol6lU5yhn66XqWBM/Sj9Sqd5wwBP10frYG3BQAn9SoNnCHgcr1KA2cIL3Hfb3rgbeFpvUoDZwi4XK/SwBkCgJP6aA28LeAD9Cqd5wz9XL1KA2fo5+pVOs8ZAj5AH62BtwUAJ/UqDZwh4HK9SgNnCC9x32964G3hab1KA2cIuFyv0sAZAoCT+mgNvC3gY/QqnecM/US9SgNn6CfqVTrPGQI+Rh+tgbcFACf1Kg2cIeByvUoDZwgvcd9veuBt4Wm9SgNnCLhcr9LAGQKAk/poDbwt4MP0Kp3nDP0svUoDZ+hn6VV6iTMEfJI+WgNvCwBO6lUaOEPA5XqVBs4QXuK+3/TA28LTepUGzhBwuV6lgTMEACf10Rp4W8Dn6VV6lTP0I/QqDZyhH6FX6VXOEPB5+mgNvC0AOKlXaeAMAZfrVRo4Q3iJ+37TA28LT+tVGjhDwOV6lQbOEACc1Edr4G0Bn6pX6VXO0JvrVRo4Q2+uV+lVzhDwqfpoDbwtADipV2ngDAGX61UaOEN4ift+0wNvC0/rVRo4Q8DlepUGzhAAnNRHa+BtAR+sV+n3OEPvqVdp4Ay9p16l3+AMAZ+tj9bA2wKAk3qVBs4QcLlepYEzhJe47zc98LbwtF6lgTMEXK5XaeAMAcBJfbQG3hbw8XqVfo8z9G56lQbO0LvpVfo9zhDw8fpoDbwtADipV2ngDAGX61UaOEN4ift+0wNvC0/rVRo4Q8DlepUGzhAAnNRHa+BtAfj/9Sr9NmfoTfQqDZyhN9Gr9NucIQD/vz5aA28LAE7qVRo4Q8DlepUGzhBe4r7f9MDbwtN6lQbOEHC5XqWBMwQAJ/XRGnhbAB70Kv02Z+jb61UaOEPfXq/Sb3OGADzoozXwtgDgpF6lgTMEXK5XaeAM4SXu+00PvC08rVdp4AwBl+tVGjhDAHBSH62BtwXgv/Qq/QnO0HfVqzRwhr6rXqU/wRkC8F/6aA28LQA4qVdp4AwBl+tVGjhDeIn7ftMDbwtP61UaOEPA5XqVBs4QAJzUR2vgbQEY9Cr9Ic7QN9OrNHCGvplepT/EGQIw6KM18LYA4KRepYEzBFyuV2ngDOEl7vtND7wtPK1XaeAMAZfrVRo4QwBwUh+tgbcF4Eu9Sn+UM/QN9CoNnKFvoFfpz3GGAPxKH62BtwUAJ/UqDZwh4HK9SgNnCC9x32964G3hab1KA2cIuFyv0sAZAoCT+mgNvC0Az+lV+qOcoX+nV2ngDP07vUp/lDME4Dl9tAbeFgCc1Ks0cIaAy/UqDZwhvMR9v+mBt4Wn9SoNnCHgcr1KA2cIAE7qozXwtgCc0av0pzlDl+tVGjhD1+pV+gucIQBn9NEaeFsAcFKv0sAZAi7XqzRwhvAS9/2mB94WntarNHCGgMv1Kg2cIQA4qY/WwNsCcF6v0t/hDF2iV2ngDP19vUp/hzME4CV9tAbeFgCc1Ks0cIaAy/UqDZwhvMR9v+mBt4Wn9SoNnCHgcr1KA2cIAE7qozXwtgD8hl6lv8kZ+jt6lQbO0F/Qq/SXOUMAfkMfrYG3BQAn9SoNnCHgcr1KA2cIL3Hfb3rgbeFpvUoDZwi4XK/SwBkCgJP6aA28LQC/rVfpEs7QH9KrNHCG/pBepb/PGQLwJ/TRGnhbAHBSr9LAGQIu16s0cIbwEvf9pgfeFp7WqzRwhoDL9SoNnCEAOKmP1sDbAvDn9Cr9C87QSb1KA2fopF6lf8EZAvDn9NEaeFsAcFKv0sAZAi7XqzRwhvAS9/2mB94WntarNHCGgMv1Kg2cIQA4qY/WwNsC8Bf0Kn0bztB/6VUaOEP/pVfp23CGAPwFfbQG3hYAnNSrNHCGgMv1Kg2cIbzEfb/pgbeFp/UqDZwh4HK9SgNnCABO6qM18LYA/GW9SvhtzhCAv6yP1sDbAoCTepUGzhBwuV6lgTOEl7jvNz3wtvC0XqWBMwRcrldp4AwBwEl9tAbeFoCr9CrhJGcIwFX6aA28LQA4qVdp4AwBl+tVGjhDeIn7ftMDbwtP61UaOEPA5XqVBs4QAJzUR2vgbQG4XK8SvuQMAbhcH62BtwUAJ/UqDZwh4HK9SgNnCC9x32969J//Ef4EZwi4XK/SwBkCgJP6aA28LQD/Wq8SJGcIwD/VR2vgbQHASb1KA2cIuFyvEv409/2mR//5H+FPcIaAy/UqDZwhADipj9bA2wLwnfQqfQxnCMB30kdr4G0BwEm9SgNnCLhcrxL+NPf9pkf/+R/hT3CGgMv1Kg2cIQA4qY/WwNsC8I31Kv0szhCA76qP1sDbAoCTepUGzhBwuV4l/Gnu+02P/vM/wp/gDAGX61UaOEMAcFIfrYG3BeB99Cq9FWcIwPvoozXwtgDgpF6lgTMEXK5XCX+a+37To//8j/AnOEPA5XqVBs4QAJzUR2vgbQF4c71K/5ozBOD99dEaeFsAcFKv0sAZAi7Xq4Q/zX2/6dF//kf4bc4Q8C/0Kg2cIQA4qY/WwNsC8NP1Kv02ZwjAT9dHa+BtAcBJvUoDZwj4F3qV8Ee57zc9+s//CL/NGQL+hV6lgTMEACf10Rp4WwA+Uq/SwBkC8JH6aA28LQA4qVdp4AwB/0KvEv4o9/2mR//5H+H3OEPAP9KrNHCGAOCkPloDbwvAR+pVGjhDAD5SH62BtwUAJ/UqDZwh4B/pVcKf477f9Og//yO8yhkC/qlepYEzBAAn9dEaeFsAPlKv0sAZAvCR+mgNvC0AOKlXaeAMAf9UrxL+BPf9pgfeFoC31as0cIYA4KQ+WgNvC8BH6lUaOEMAPlIfrYG3BQAn9SoNnCEAP4L7ftMDbwvA2+pVGjhDAHBSH62BtwXgI/UqDZwhAB+pj9bA2wKAk3qVBs4QgB/Bfb/pgbcF4G31Kg2cIQA4qY/WwNsC8JF6lQbOEICP1Edr4G0BwEm9SgNnCMCP4L7f9MDbAvC2epUGzhAAnNRHa+BtAfhIvUoDZwjAR+qjNfC2AOCkXqWBMwTgR3Dfb3rgbQF4W71KA2cIAE7qozXwtgB8pF6lgTME4CP10Rp4WwBwUq/SwBkC8CO47zc98LYAvK1epYEzBAAn9dEaeFsAPlKv0sAZAvCR+mgNvC0AOKlXaeAMAfgR3PebHnhbAN5Wr9LAGQKAk/poDbwtAB+pV2ngDAH4SH20Bt4WAJzUqzRwhgD8CO77TQ+8LQBvq1dp4AwBwEl9tAbeFoCP1Ks0cIYAfKQ+WgNvCwBO6lUaOEMAfgT3/aYH3haAt9WrNHCGAOCkPloDbwvAR+pVGjhDAD5SH62BtwUAJ/UqDZwhAD+C+37TA28LwNvqVRo4QwBwUh+tgbcF4CP1Kg2cIQAfqY/WwNsCgJN6lQbOEIAfwX2/6YG3BeBt9SoNnCEAOKmP1sDbAvCRepUGzhCAj9RHa+BtAcBJvUoDZwjAj+C+3/TA2wLwtnqVBs4QAJzUR2vgbQH4SL1KA2cIwEfqozXwtgDgpF6lgTME4Edw32964G0BeFu9SgNnCABO6qM18LYAfKRepYEzBOAj9dEaeFsAcFKv0sAZAvAjuO83PfC2ALytXqWBMwQAJ/XRGnhbAD5Sr9LAGQLwkfpoDbwtADipV2ngDAH4Edz3mx54WwDeVq/SwBkCgJP6aA28LQAfqVdp4AwB+Eh9tAbeFgCc1Ks0cIYA/Aju+00PvC0Ab6tXaeAMAcBJfbQG3haAj9SrNHCGAHykPloDbwsATupVGjhDAH4E9/2mB94WgLfVqzRwhgDgpD5aA28LwEfqVRo4QwA+Uh+tgbcFACf1Kg2cIQA/gvt+0wNvC8Db6lUaOEMAcFIfrYG3BeAj9SoNnCEAH6mP1sDbAoCTepUGzhCAH8F9v+mBtwXgbfUqDZwhADipj9bA2wLwkXqVBs4QgI/UR2vgbQHASb1KA2cIwI/gvt/0wNsC8LZ6lQbOEACc1Edr4G0B+Ei9SgNnCMBH6qM18LYA4KRepYEzBOBHcN9veuBtAXhbvUoDZwgATuqjNfC2AHykXqWBMwTgI/XRGnhbAHBSr9LAGQLwI7jvNz3wtgC8rV6lgTMEACf10Rp4WwA+Uq/SwBkC8JH6aA28LQA4qVdp4AwB+BHc95seeFsA3lav0sAZAoCT+mgNvC0AH6lXaeAMAfhIfbQG3hYAnNSrNHCGAPwI7vtND7wtAG+rV2ngDAHASX20Bt4WgI/UqzRwhgB8pD5aA28LAE7qVRo4QwB+BPf9pgfeFoC31as0cIYA4KQ+WgNvC8BH6lUaOEMAPlIfrYG3BQAn9SoNnCEAP4L7ftMDbwvA2+pVGjhDAHBSH62BtwXgI/UqDZwhAB+pj9bA2wKAk3qVBs4QgB/Bfb/pgbcF4G31Kg2cIQA4qY/WwNsC8JF6lQbOEICP1Edr4G0BwEm9SgNnCMCP4L7f9MDbAvC2epUGzhAAnNRHa+BtAfhIvUoDZwjAR+qjNfC2AOCkXqWBMwTgR3Dfb3rgbQF4W71KA2cIAE7qozXwtgB8pF6lgTME4CP10Rp4WwBwUq/SwBkC8CO47zc98LYAvK1epYEzBAAn9dEaeFsAPlKv0sAZAvCR+mgNvC0AOKlXaeAMAfgR3PebHnhbAN5Wr9LAGQKAk/poDbwtAB+pV2ngDAH4SH20Bt4WAJzUqzRwhgD8CO77TQ+8LQBvq1dp4AwBwEl9tAbeFoCP1Ks0cIYAfKQ+WgNvCwBO6lUaOEMAfgT3/aYH3haAt9WrNHCGAOCkPloDbwvAR+pVGjhDAD5SH62BtwUAJ/UqDZwhAD+C+37TA28LwNvqVRo4QwBwUh+tgbcF4CP1Kg2cIQAfqY/WwNsCgJN6lQbOEIAfwX2/CQAAAAAAAAAA4Cru+00AAAAAAAAAAABXcd9vAgAAAAAAAAAAuIr7fhMAAAAAAAAAAMBV3PebAAAAAAAAAAAAruK+3wQAAAAAAAAAAHAV9/0mAAAAAAAAAACAq7jvNwEAAAAAAAAAAFzFfb8JAAAAAAAAAADgKu77TQ+8LQBvq1dp4AwBwEl9tAbeFoCP1Ks0cIYAfKQ+WgNvCwBO6lUaOEMAfgT3/aYH3haAt9WrNHCGAOCkPloDbwvAR+pVGjhDAD5SH62BtwUAJ/UqDZyh/489OLa1XdeWLVplCrSVEqNgeIyCIR2f160PLEvAxjD0vjXF3hqAT3DuSw+eFoCflb5V8GoCgJcyooKnBeBI6VsFryYAR8qICp4WALyUvlXwagLwCc596cHTAvCz0rcKXk0A8FJGVPC0ABwpfavg1QTgSBlRwdMCgJfStwpeTQA+wbkvPXhaAH5W+lbBqwkAXsqICp4WgCOlbxW8mgAcKSMqeFoA8FL6VsGrCcAnOPelB08LwM9K3yp4NQHASxlRwdMCcKT0rYJXE4AjZUQFTwsAXkrfKng1AfgE57704GkB+FnpWwWvJgB4KSMqeFoAjpS+VfBqAnCkjKjgaQHAS+lbBa8mAJ/g3JcePC0APyt9q+DVBAAvZUQFTwvAkdK3Cl5NAI6UERU8LQB4KX2r4NUE4BOc+9KDpwXgZ6VvFbyaAOCljKjgaQE4UvpWwasJwJEyooKnBQAvpW8VvJoAfIJzX3rwtAD8rPStglcTALyUERU8LQBHSt8qeDUBOFJGVPC0AOCl9K2CVxOAT3DuSw+eFoCflb5V8GoCgJcyooKnBeBI6VsFryYAR8qICp4WALyUvlXwagLwCc596cHTAvCz0rcKXk0A8FJGVPC0ABwpfavg1QTgSBlRwdMCgJfStwpeTQA+wbkvPXhaAH5W+lbBqwkAXsqICp4WgCOlbxW8mgAcKSMqeFoA8FL6VsGrCcAnOPelB08LwM9K3yp4NQHASxlRwdMCcKT0rYJXE4AjZUQFTwsAXkrfKng1AfgE57704GkB+FnpWwWvJgB4KSMqeFoAjpS+VfBqAnCkjKjgaQHAS+lbBa8mAJ/g3JcePC0APyt9q+DVBAAvZUQFTwvAkdK3Cl5NAI6UERU8LQB4KX2r4NUE4BOc+9KDpwXgZ6VvFbyaAOCljKjgaQE4UvpWwasJwJEyooKnBQAvpW8VvJoAfIJzX3rwtAD8rPStglcTALyUERU8LQBHSt8qeDUBOFJGVPC0AOCl9K2CVxOAT3DuSw+eFoCflb5V8GoCgJcyooKnBeBI6VsFryYAR8qICp4WALyUvlXwagLwCc596cHTAvCz0rcKXk0A8FJGVPC0ABwpfavg1QTgSBlRwdMCgJfStwpeTQA+wbkvPXhaAH5W+lbBqwkAXsqICp4WgCOlbxW8mgAcKSMqeFoA8FL6VsGrCcAnOPelB08LwM9K3yp4NQHASxlRwdMCcKT0rYJXE4AjZUQFTwsAXkrfKng1AfgE57704GkB+FnpWwWvJgB4KSMqeFoAjpS+VfBqAnCkjKjgaQHAS+lbBa8mAJ/g3JcePC0APyt9q+DVBAAvZUQFTwvAkdK3Cl5NAI6UERU8LQB4KX2r4NUE4BOc+9KDpwXgZ6VvFbyaAOCljKjgaQE4UvpWwasJwJEyooKnBQAvpW8VvJoAfIJzX3rwtAD8rPStglcTALyUERU8LQBHSt8qeDUBOFJGVPC0AOCl9K2CVxOAT3DuSw+eFoCflb5V8GoCgJcyooKnBeBI6VsFryYAR8qICp4WALyUvlXwagLwCc596cHTAvCz0rcKXk0A8FJGVPC0ABwpfavg1QTgSBlRwdMCgJfStwpeTQA+wbkvPXhaAH5W+lbBqwkAXsqICp4WgCOlbxW8mgAcKSMqeFoA8FL6VsGrCcAnOPelB08LwM9K3yp4NQHASxlRwdMCcKT0rYJXE4AjZUQFTwsAXkrfKng1AfgE57704GkB+FnpWwWvJgB4KSMqeFoAjpS+VfBqAnCkjKjgaQHAS+lbBa8mAJ/g3JcePC0APyt9q+DVBAAvZUQFTwvAkdK3Cl5NAI6UERU8LQB4KX2r4NUE4BOc+9KDpwXgZ6VvFbyaAOCljKjgaQE4UvpWwasJwJEyooKnBQAvpW8VvJoAfIJzX3rwtAD8rPStglcTALyUERU8LQBHSt8qeDUBOFJGVPC0AOCl9K2CVxOAT3DuSw+eFoCflb5V8GoCgJcyooKnBeBI6VsFryYAR8qICp4WALyUvlXwagLwCc596cHTAvCz0rcKXk0A8FJGVPC0ABwpfavg1QTgSBlRwdMCgJfStwpeTQA+wbkvPXhaAH5W+lbBqwkAXsqICp4WgCOlbxW8mgAcKSMqeFoA8FL6VsGrCcAnOPelB08LwM9K3yp4NQHASxlRwdMCcKT0rYJXE4AjZUQFTwsAXkrfKng1AfgE57704GkB+FnpWwWvJgB4KSMqeFoAjpS+VfBqAnCkjKjgaQHAS+lbBa8mAJ/g3JcePC0APyt9q+DVBAAvZUQFTwvAkdK3Cl5NAI6UERU8LQB4KX2r4NUE4BOc+9KDpwXgZ6VvFbyaAOCljKjgaQE4UvpWwasJwJEyooKnBQAvpW8VvJoAfIJzX3rwtAD8rPStglcTALyUERU8LQBHSt8qeDUBOFJGVPC0AOCl9K2CVxOAT3DuSw+eFoCflb5V8GoCgJcyooKnBeBI6VsFryYAR8qICp4WALyUvlXwagLwCc596cHTAvCz0rcKXk0A8FJGVPC0ABwpfavg1QTgSBlRwdMCgJfStwpeTQA+wbkvPXhaAH5W+lbBqwkAXsqICp4WgCOlbxW8mgAcKSMqeFoA8FL6VsGrCcAnOPelB08LwM9K3yp4NQHASxlRwdMCcKT0rYJXE4AjZUQFTwsAXkrfKng1AfgE57704GkB+FnpWwWvJgB4KSMqeFoAjpS+VfBqAnCkjKjgaQHAS+lbBa8mAJ/g3JcePC0APyt9q+DVBAAvZUQFTwvAkdK3Cl5NAI6UERU8LQB4KX2r4NUE4BOc+9KDpwXgZ6VvFbyaAOCljKjgaQE4UvpWwasJwJEyooKnBQAvpW8VvJoAfIJzX3rwtAD8rPStglcTALyUERU8LQBHSt8qeDUBOFJGVPC0AOCl9K2CVxOAT3DuSw+eFoCflb5V8GoCgJcyooKnBeBI6VsFryYAR8qICp4WALyUvlXwagLwCc596cHTAvCz0rcKXk0A8FJGVPC0ABwpfavg1QTgSBlRwdMCgJfStwpeTQA+wbkvPXhaAH5W+lbBqwkAXsqICp4WgCOlbxW8mgAcKSMqeFoA8FL6VsGrCcAnOPelB08LwM9K3yp4NQHASxlRwdMCcKT0rYJXE4AjZUQFTwsAXkrfKng1AfgE57704GkB+FnpWwWvJgB4KSMqeFoAjpS+VfBqAnCkjKjgaQHAS+lbBa8mAJ/g3JcePC0APyt9q+DVBAAvZUQFTwvAkdK3Cl5NAI6UERU8LQB4KX2r4NUE4BOc+9KDpwXgZ6VvFbyaAOCljKjgaQE4UvpWwasJwJEyooKnBQAvpW8VvJoAfIJzX3rwtAD8rPStglcTALyUERU8LQBHSt8qeDUBOFJGVPC0AOCl9K2CVxOAT3DuSw+eFoCflb5V8GoCgJcyooKnBeBI6VsFryYAR8qICp4WALyUvlXwagLwCc596cHTAvCz0rcKXk0A8FJGVPC0ABwpfavg1QTgSBlRwdMCgJfStwpeTQA+wbkvPXhaAH5W+lbBqwkAXsqICp4WgCOlbxW8mgAcKSMqeFoA8FL6VsGrCcAnOPelB08LwM9K3yp4NQHASxlRwdMCcKT0rYJXE4AjZUQFTwsAXkrfKng1AfgE57704GkB+FnpWwWvJgB4KSMqeFoAjpS+VfBqAnCkjKjgaQHAS+lbBa8mAJ/g3JcePC0APyt9q+DVBAAvZUQFTwvAkdK3Cl5NAI6UERU8LQB4KX2r4NUE4BOc+9KDpwXgZ6VvFbyaAOCljKjgaQE4UvpWwasJwJEyooKnBQAvpW8VvJoAfIJzX3rwtAD8rPStglcTALyUERU8LQBHSt8qeDUBOFJGVPC0AOCl9K2CVxOAT3DuSw+eFoCflb5V8GoCgJcyooKnBeBI6VsFryYAR8qICp4WALyUvlXwagLwCc596cHTAvCz0rcKXk0A8FJGVPC0ABwpfavg1QTgSBlRwdMCgJfStwpeTQA+wbkvPXhaAH5W+lbBqwkAXsqICp4WgCOlbxW8mgAcKSMqeFoA8FL6VsGrCcAnOPelB08LwM9K3yp4NQHASxlRwdMCcKT0rYJXE4AjZUQFTwsAXkrfKng1AfgE57704GkB+FnpWwWvJgB4KSMqeFoAjpS+VfBqAnCkjKjgaQHAS+lbBa8mAJ/g3JcePC0APyt9q+DVBAAvZUQFTwvAkdK3Cl5NAI6UERU8LQB4KX2r4NUE4BOc+9KDpwXgZ6VvFbyaAOCljKjgaQE4UvpWwasJwJEyooKnBQAvpW8VvJoAfIJzX3rwtAD8rPStglcTALyUERU8LQBHSt8qeDUBOFJGVPC0AOCl9K2CVxOAT3DuSw+eFoCflb5V8GoCgJcyooKnBeBI6VsFryYAR8qICp4WALyUvlXwagLwCc596cHTAvCz0rcKXk0A8FJGVPC0ABwpfavg1QTgSBlRwdMCgJfStwpeTQA+wbkvPXhaAH5W+lbBqwkAXsqICp4WgCOlbxW8mgAcKSMqeFoA8FL6VsGrCcAnOPelB08LwM9K3yp4NQHASxnxaC0SAAAgAElEQVRRwdMCcKT0rYJXE4AjZUQFTwsAXkrfKng1AfgE57704GkB+FnpWwWvJgB4KSMqeFoAjpS+VfBqAnCkjKjgaQHAS+lbBa8mAJ/g3JcePC0APyt9q+DVBAAvZUQFTwvAkdK3Cl5NAI6UERU8LQB4KX2r4NUE4BOc+9KDpwXgZ6VvFbyaAOCljKjgaQE4UvpWwasJwJEyooKnBQAvpW8VvJoAfIJzX3rwtAD8rPStglcTALyUERU8LQBHSt8qeDUBOFJGVPC0AOCl9K2CVxOAT3DuSw+eFoCflb5V8GoCgJcyooKnBeBI6VsFryYAR8qICp4WALyUvlXwagLwCc596cHTAvCz0rcKXk0A8FJGVPC0ABwpfavg1QTgSBlRwdMCgJfStwpeTQA+wbkvPXhaAH5W+lbBqwkAXsqICp4WgCOlbxW8mgAcKSMqeFoA8FL6VsGrCcAnOPelB08LwM9K3yp4NQHASxlRwdMCcKT0rYJXE4AjZUQFTwsAXkrfKng1AfgE57704GkB+FnpWwWvJgB4KSMqeFoAjpS+VfBqAnCkjKjgaQHAS+lbBa8mAJ/g3JcePC0APyt9q+DVBAAvZUQFTwvAkdK3Cl5NAI6UERU8LQB4KX2r4NUE4BOc+9KDpwXgZ6VvFbyaAOCljKjgaQE4UvpWwasJwJEyooKnBQAvpW8VvJoAfIJzX3rwtAD8rPStglcTALyUERU8LQBHSt8qeDUBOFJGVPC0AOCl9K2CVxOAT3DuSw+eFoCflb5V8GoCgJcyooKnBeBI6VsFryYAR8qICp4WALyUvlXwagLwCc596cHTAvCz0rcKXk0A8FJGVPC0ABwpfavg1QTgSBlRwdMCgJfStwpeTQA+wbkvPXhaAH5W+lbBqwkAXsqICp4WgCOlbxW8mgAcKSMqeFoA8FL6VsGrCcAnOPelB08LwM9K3yp4NQHASxlRwdMCcKT0rYJXE4AjZUQFTwsAXkrfKng1AfgE57704GkB+FnpWwWvJgB4KSMqeFoAjpS+VfBqAnCkjKjgaQHAS+lbBa8mAJ/g3JcePC0APyt9q+DVBAAvZUQFTwvAkdK3Cl5NAI6UERU8LQB4KX2r4NUE4BOc+9KDpwXgZ6VvFbyaAOCljKjgaQE4UvpWwasJwJEyooKnBQAvpW8VvJoAfIJzX3rwtAD8rPStglcTALyUERU8LQBHSt8qeDUBOFJGVPC0AOCl9K2CVxOAT3DuSw+eFoCflb5V8GoCgJcyooKnBeBI6VsFryYAR8qICp4WALyUvlXwagLwCc596cHTAvCz0rcKXk0A8FJGVPC0ABwpfavg1QTgSBlRwdMCgJfStwpeTQA+wbkvPXhaAH5W+lbBqwkAXsqICp4WgCOlbxW8mgAcKSMqeFoA8FL6VsGrCcAnOPelB08LwM9K3yp4NQHASxlRwdMCcKT0rYJXE4AjZUQFTwsAXkrfKng1AfgE57704GkB+FnpWwWvJgB4KSMqeFoAjpS+VfBqAnCkjKjgaQHAS+lbBa8mAJ/g3JcePC0APyt9q+DVBAAvZUQFTwvAkdK3Cl5NAI6UERU8LQB4KX2r4NUE4BOc+9KDpwXgZ6VvFbyaAOCljKjgaQE4UvpWwasJwJEyooKnBQAvpW8VvJoAfIJzX3rwtAD8rPStglcTALyUERU8LQBHSt8qeDUBOFJGVPC0AOCl9K2CVxOAT3DuSw+eFoCflb5V8GoCgJcyooKnBeBI6VsFryYAR8qICp4WALyUvlXwagLwCc596cHTAvCz0rcKXk0A8FJGVPC0ABwpfavg1QTgSBlRwdMCgJfStwpeTQA+wbkvPXhaAH5W+lbBqwkAXsqICp4WgCOlbxW8mgAcKSMqeFoA8FL6VsGrCcAnOPelB08LwM9K3yp4NQHASxlRwdMCcKT0rYJXE4AjZUQFTwsAXkrfKng1AfgE57704GkB+FnpWwWvJgB4KSMqeFoAjpS+VfBqAnCkjKjgaQHAS+lbBa8mAJ/g3JcePC0APyt9q+DVBAAvZUQFTwvAkdK3Cl5NAI6UERU8LQB4KX2r4NUE4BOc+9KDpwXgZ6VvFbyaAOCljKjgaQE4UvpWwasJwJEyooKnBQAvpW8VvJoAfIJzX3rwtAD8rPStglcTALyUERU8LQBHSt8qeDUBOFJGVPC0AOCl9K2CVxOAT3DuSw+eFoCflb5V8GoCgJcyooKnBeBI6VsFryYAR8qICp4WALyUvlXwagLwCc596cHTAvCz0rcKXk0A8FJGVPC0ABwpfavg1QTgSBlRwdMCgJfStwpeTQA+wbkvPXhaAH5W+lbBqwkAXsqICp4WgCOlbxW8mgAcKSMqeFoA8FL6VsGrCcAnOPelB08LwM9K3yp4NQHASxlRwdMCcKT0rYJXE4AjZUQFTwsAXkrfKng1AfgE57704GkB+FnpWwWvJgB4KSMqeFoAjpS+VfBqAnCkjKjgaQHAS+lbBa8mAJ/g3JcePC0APyt9q+DVBAAvZUQFTwvAkdK3Cl5NAI6UERU8LQB4KX2r4NUE4BOc+9KDpwXgZ6VvFbyaAOCljKjgaQE4UvpWwasJwJEyooKnBQAvpW8VvJoAfIJzX3rwtAD8rPStglcTALyUERU8LQBHSt8qeDUBOFJGVPC0AOCl9K2CVxOAT3DuSw+eFoCflb5V8GoCgJcyooKnBeBI6VsFryYAR8qICp4WALyUvlXwagLwCc596cHTAvCz0rcKXk0A8FJGVPC0ABwpfavg1QTgSBlRwdMCgJfStwpeTQA+wbkvPXhaAH5W+lbBqwkAXsqICp4WgCOlbxW8mgAcKSMqeFoA8FL6VsGrCcAnOPelB08LwM9K3yp4NQHASxlRwdMCcKT0rYJXE4AjZUQFTwsAXkrfKng1AfgE57704GkB+FnpWwWvJgB4KSMqeFoAjpS+VfBqAnCkjKjgaQHAS+lbBa8mAJ/g3JcePC0APyt9q+DVBAAvZUQFTwvAkdK3Cl5NAI6UERU8LQB4KX2r4NUE4BOc+9KDpwXgZ6VvFbyaAOCljKjgaQE4UvpWwasJwJEyooKnBQAvpW8VvJoAfIJzX3rwtAD8rPStglcTALyUERU8LQBHSt8qeDUBOFJGVPC0AOCl9K2CVxOAT3DuSw+eFoCflb5V8GoCgJcyooKnBeBI6VsFryYAR8qICp4WALyUvlXwagLwCc596cHTAvCz0rcKXk0A8FJGVPC0ABwpfavg1QTgSBlRwdMCgJfStwpeTQA+wbkvPXhaAH5W+lbBqwkAXsqICp4WgCOlbxW8mgAcKSMqeFoA8FL6VsGrCcAnOPelB08LwM9K3yp4NQHASxlRwdMCcKT0rYJXE4AjZUQFTwsAXkrfKng1AfgE57704GkB+FnpWwWvJgB4KSMqeFoAjpS+VfBqAnCkjKjgaQHAS+lbBa8mAJ/g3JcePC0APyt9q+DVBAAvZUQFTwvAkdK3Cl5NAI6UERU8LQB4KX2r4NUE4BOc+9KDpwXgZ6VvFbyaAOCljKjgaQE4UvpWwasJwJEyooKnBQAvpW8VvJoAfIJzX3rwtAD8rPStglcTALyUERU8LQBHSt8qeDUBOFJGVPC0AOCl9K2CVxOAT3DuSw+eFoCflb5V8GoCgJcyooKnBeBI6VsFryYAR8qICp4WALyUvlXwagLwCc596cHTAvCz0rcKXk0A8FJGVPC0ABwpfavg1QTgSBlRwdMCgJfStwpeTQA+wbkvPXhaAH5W+lbBqwkAXsqICp4WgCOlbxW8mgAcKSMqeFoA8FL6VsGrCcAnOPelB08LwM9K3yp4NQHASxlRwdMCcKT0rYJXE4AjZUQFTwsAXkrfKng1AfgE57704GkB+FnpWwWvJgB4KSMqeFoAjpS+VfBqAnCkjKjgaQHAS+lbBa8mAJ/g3JcePC0APyt9q+DVBAAvZUQFTwvAkdK3Cl5NAI6UERU8LQB4KX2r4NUE4BOc+9KDpwXgZ6VvFbyaAOCljKjgaQE4UvpWwasJwJEyooKnBQAvpW8VvJoAfIJzX3rwtAD8rPStglcTALyUERU8LQBHSt8qeDUBOFJGVPC0AOCl9K2CVxOAT3DuSw+eFoCflb5V8GoCgJcyooKnBeBI6VsFryYAR8qICp4WALyUvlXwagLwCc596cHTAvCz0rcKXk0A8FJGVPC0ABwpfavg1QTgSBlRwdMCgJfStwpeTQA+wbkvPXhaAH5W+lbBqwkAXsqICp4WgCOlbxW8mgAcKSMqeFoA8FL6VsGrCcAnOPelB08LwM9K3yp4NQHASxlRwdMCcKT0rYJXE4AjZUQFTwsAXkrfKng1AfgE57704GkB+FnpWwWvJgB4KSMqeFoAjpS+VfBqAnCkjKjgaQHAS+lbBa8mAJ/g3JcePC0APyt9q+DVBAAvZUQFTwvAkdK3Cl5NAI6UERU8LQB4KX2r4NUE4BOc+9KDpwXgZ6VvFbyaAOCljKjgaQE4UvpWwasJwJEyooKnBQAvpW8VvJoAfIJzX3rwtAD8rPStglcTALyUERU8LQBHSt8qeDUBOFJGVPC0AOCl9K2CVxOAT3DuSw+eFoCflb5V8GoCgJcyooKnBeBI6VsFryYAR8qICp4WALyUvlXwagLwCc596cHTAvCz0rcKXk0A8FJGVPC0ABwpfavg1QTgSBlRwdMCgJfStwpeTQA+wbkvPXhaAH5W+lbBqwkAXsqICp4WgCOlbxW8mgAcKSMqeFoA8FL6VsGrCcAnOPelB08LwM9K3yp4NQHASxlRwdMCcKT0rYJXE4AjZUQFTwsAXkrfKng1AfgE57704GkB+FnpWwWvJgB4KSMqeFoAjpS+VfBqAnCkjKjgaQHAS+lbBa8mAJ/g3JcePC0APyt9q+DVBAAvZUQFTwvAkdK3Cl5NAI6UERU8LQB4KX2r4NUE4BOc+9KDpwXgZ6VvFbyaAOCljKjgaQE4UvpWwasJwJEyooKnBQAvpW8VvJoAfIJzX3rwtAD8rPStglcTALyUERU8LQBHSt8qeDUBOFJGVPC0AOCl9K2CVxOAT3DuSw+eFoCflb5V8GoCgJcyooKnBeBI6VsFryYAR8qICp4WALyUvlXwagLwCc596cHTAvCz0rcKXk0A8FJGVPC0ABwpfavg1QTgSBlRwdMCgJfStwpeTQA+wbkvPXhaAH5W+lbBqwkAXsqICp4WgCOlbxW8mgAcKSMqeFoA8FL6VsGrCcAnOPelB08LwM9K3yp4NQHASxlRwdMCcKT0rYJXE4AjZUQFTwsAXkrfKng1AfgE57704GkB+FnpWwWvJgB4KSMqeFoAjpS+VfBqAnCkjKjgaQHAS+lbBa8mAJ/g3JcePC0APyt9q+DVBAAvZUQFTwvAkdK3Cl5NAI6UERU8LQB4KX2r4NUE4BOc+9LTf/8TgC/yagKAlzKigqcF4EjpWwWvJgBHyogKnhYAvJS+BeDrnPvS03//E4Av8moCgJcyooKnBeBI6VsFryYAR8qICp4WALyUvgXg65z70tN//xOAL/JqAoCXMqKCpwXgSOlbBa8mAEfKiAqeFgC8lL4F4Ouc+9LTf/8TgC/yagKAlzKigqcF4EjpWwWvJgBHyogKnhYAvJS+BeDrnPvS03//E4Av8moCgJcyooKnBeBI6VsFryYAR8qICp4WALyUvgXg65z70tN//xOAz/FqAoD3MqKCpwXgSOlbBa8mAEfKiAqeFgC8l74F4NOc+9LTf/8TgM/xagKA9zKigqcF4EjpWwWvJgBHyogKnhYAvJe+BeDTnPvS03//E4Bv8WoCgP+TjKjgaQE4UvpWwasJwJEyooKnBQD/J+lbAL7LuS89/fc/AfgKryYA+P+QERU8LQBHSt8qeDUBOFJGVPC0AOD/Q/oWgC9y7ksPnhYAAMCfjKjgaQE4UvpWwasJwJEyooKnBQAA8A/nvvTgaQEAAPzJiAqeFoAjpW8VvJoAHCkjKnhaAAAA/3DuSw+eFgAAwJ+MqOBpAThS+lbBqwnAkTKigqcFAADwD+e+9OBpAQAA/MmICp4WgCOlbxW8mgAcKSMqeFoAAAD/cO5LD54WAADAn4yo4GkBOFL6VsGrCcCRMqKCpwUAAPAP57704GkBAAD8yYgKnhaAI6VvFbyaABwpIyp4WgAAAP9w7ksPnhYAAMCfjKjgaQE4UvpWwasJwJEyooKnBQAA8A/nvvTgaQEAAPzJiAqeFoAjpW8VvJoAHCkjKnhaAAAA/3DuSw+eFgAAwJ+MqOBpAThS+lbBqwnAkTKigqcFAADwD+e+9OBpAQAA/MmICp4WgCOlbxW8mgAcKSMqeFoAAAD/cO5LD54WAADAn4yo4GkBOFL6VsGrCcCRMqKCpwUAAPAP57704GkBAAD8yYgKnhaAI6VvFbyaABwpIyp4WgAAAP9w7ksPnhYAAMCfjKjgaQE4UvpWwasJwJEyooKnBQAA8A/nvvTgaQEAAPzJiAqeFoAjpW8VvJoAHCkjKnhaAAAA/3DuSw+eFgAAwJ+MqOBpAThS+lbBqwnAkTKigqcFAADwD+e+9OBpAQAA/MmICp4WgCOlbxW8mgAcKSMqeFoAAAD/cO5LD54WAADAn4yo4GkBOFL6VsGrCcCRMqKCpwUAAPAP57704GkBAAD8yYgKnhaAI6VvFbyaABwpIyp4WgAAAP9w7ksPnhYAAMCfjKjgaQE4UvpWwasJwJEyooKnBQAA8A/nvvTgaQEAAPzJiAqeFoAjpW8VvJoAHCkjKnhaAAAA/3DuSw+eFgAAwJ+MqOBpAThS+lbBqwnAkTKigqcFAADwD+e+9OBpAQAA/MmICp4WgCOlbxW8mgAcKSMqeFoAAAD/cO5LD54WAADAn4yo4GkBOFL6VsGrCcCRMqKCpwUAAPAP57704GkBAAD8yYgKnhaAI6VvFbyaABwpIyp4WgAAAP9w7ksPnhYAAMCfjKjgaQE4UvpWwasJwJEyooKnBQAA8A/nvvTgaQEAAPzJiAqeFoAjpW8VvJoAHCkjKnhaAAAA/3DuSw+eFgAAwJ+MqOBpAThS+lbBqwnAkTKigqcFAADwD+e+9OBpAQAA/MmICp4WgCOlbxW8mgAcKSMqeFoAAAD/cO5LD54WAADAn4yo4GkBOFL6VsGrCcCRMqKCpwUAAPAP57704GkBAAD8yYgKnhaAI6VvFbyaABwpIyp4WgAAAP9w7ksPnhYAAMCfjKjgaQE4UvpWwasJwJEyooKnBQAA8A/nvvTgaQEAAPzJiAqeFoAjpW8VvJoAHCkjKnhaAAAA/3DuSw+eFgAAwJ+MqOBpAThS+lbBqwnAkTKigqcFAADwD+e+9OBpAQAA/MmICp4WgCOlbxW8mgAcKSMqeFoAAAD/cO5LD54WAADAn4yo4GkBOFL6VsGrCcCRMqKCpwUAAPAP57704GkBAAD8yYgKnhaAI6VvFbyaABwpIyp4WgAAAP9w7ksPnhYAAMCfjKjgaQE4Uvr+f+3BsQ2EMBBE0ZnQInZLVOHytgr6Ip6TiJDQppf4v6eGr0MAtpQVNVwWAADAhzOHXlwWAADAIytquCwAW8p5q+HrEIAtZUUNlwUAAPDhzKEXlwUAAPDIihouC8CWct5q+DoEYEtZUcNlAQAAfDhz6MVlAQAAPLKihssCsKWctxq+DgHYUlbUcFkAAAAfzhx6cVkAAACPrKjhsgBsKeethq9DALaUFTVcFgAAwIczh15cFgAAwCMrargsAFvKeavh6xCALWVFDZcFAADw4cyhF5cFAADwyIoaLgvAlnLeavg6BGBLWVHDZQEAAHw4c+jFZQEAADyyoobLArClnLcavg4B2FJW1HBZAAAAH84cenFZAAAAj6yo4bIAbCnnrYavQwC2lBU1XBYAAMCHM4deXBYAAMAjK2q4LABbynmr4esQgC1lRQ2XBQAA8OHMoReXBQAA8MiKGi4LwJZy3mr4OgRgS1lRw2UBAAB8OHPoxWUBAAA8sqKGywKwpZy3Gr4OAdhSVtRwWQAAAB/OHHpxWQAAAI+sqOGyAGwp562Gr0MAtpQVNVwWAADAhzOHXlwWAADAIytquCwAW8p5q+HrEIAtZUUNlwUAAPDhzKEXlwUAAPDIihouC8CWct5q+DoEYEtZUcNlAQAAfDhz6MVlAQAAPLKihssCsKWctxq+DgHYUlbUcFkAAAAfzhx6cVkAAACPrKjhsgBsKeethq9DALaUFTVcFgAAwIczh15cFgAAwCMrargsAFvKeavh6xCALWVFDZcFAADw4cyhF5cFAADwyIoaLgvAlnLeavg6BGBLWVHDZQEAAHw4c+jFZQEAADyyoobLArClnLcavg4B2FJW1HBZAAAAH84cenFZAAAAj6yo4bIAbCnnrYavQwC2lBU1XBYAAMCHM4deXBYAAMAjK2q4LABbynmr4esQgC1lRQ2XBQAA8OHMoReXBQAA8MiKGi4LwJZy3mr4OgRgS1lRw2UBAAB8OHPoxWUBAAA8sqKGywKwpZy3Gr4OAdhSVtRwWQAAAB/OHHpxWQAAAI+sqOGyAGwp562Gr0MAtpQVNVwWAADAhzOHXlwWAADAIytquCwAW8p5q+HrEIAtZUUNlwUAAPDhzKEXlwUAAPDIihouC8CWct5q+DoEYEtZUcNlAQAAfDhz6MVlAQAAPLKihssCsKWctxq+DgHYUlbUcFkAAAAfzhx6cVkAAACPrKjhsgBsKeethq9DALaUFTVcFgAAwIczh15cFgAAwCMrargsAFvKeavh6xCALWVFDZcFAADw4cyhF5cFAADwyIoaLgvAlnLeavg6BGBLWVHDZQEAAHw4c+jFZQEAADyyoobLArClnLcavg4B2FJW1HBZAAAAH84cenFZAAAAj6yo4bIAbCnnrYavQwC2lBU1XBYAAMCHM4deXBYAAMAjK2q4LABbynmr4esQgC1lRQ2XBQAA8OHMoReXBQAA8MiKGi4LwJZy3mr4OgRgS1lRw2UBAAB8OHPoxWUBAAA8sqKGywKwpZy3Gr4OAdhSVtRwWQAAAB/OHHpxWQAAAI+sqOGyAGwp562Gr0MAtpQVNVwWAADAhzOHXlwWAADAIytquCwAW8p5q+HrEIAtZUUNlwUAAPDhzKEXlwUAAPDIihouC8CWct5q+DoEYEtZUcNlAQAAfDhz6MVlAQAAPLKihssCsKWctxq+DgHYUlbUcFkAAAAfzhx6cVkAAACPrKjhsgBsKeethq9DALaUFTVcFgAAwIczh15cFgAAwCMrargsAFvKeavh6xCALWVFDZcFAADw4cyhF5cFAADwyIoaLgvAlnLeavg6BGBLWVHDZQEAAHw4c+jFZQEAADyyoobLArClnLcavg4B2FJW1HBZAAAAH84cenFZAAAAj6yo4bIAbCnnrYavQwC2lBU1XBYAAMCHM4deXBYAAMAjK2q4LABbynmr4esQgC1lRQ2XBQAA8OHMoReXBQAA8MiKGi4LwJZy3mr4OgRgS1lRw2UBAAB8OHPoxWUBAAA8sqKGywKwpZy3Gr4OAdhSVtRwWQAAAB/OHHpxWQAAAI+sqOGyAGwp562Gr0MAtpQVNVwWAADAhzOHXlwWAADAIytquCwAW8p5q+HrEIAtZUUNlwUAAPDhzKEXlwUAAPDIihouC8CWct5q+DoEYEtZUcNlAQAAfDhz6MVlAQAAPLKihssCsKWctxq+DgHYUlbUcFkAAAAfzhx6cVkAAACPrKjhsgBsKeethq9DALaUFTVcFgAAwIczh15cFgAAwCMrargsAFvKeavh6xCALWVFDZcFAADw4cyhF5cFAADwyIoaLgvAlnLeavg6BGBLWVHDZQEAAHw4c+jFZQEAADyyoobLArClnLcavg4B2FJW1HBZAAAAH84cenFZAAAAj6yo4bIAbCnnrYavQwC2lBU1XBYAAMCHM4deXBYAAMAjK2q4LABbynmr4esQgC1lRQ2XBQAA8OHMoReXBQAA8MiKGi4LwJZy3mr4OgRgS1lRw2UBAAB8OHPoxWUBAAA8sqKGywKwpZy3Gr4OAdhSVtRwWQAAAB/OHHpxWQAAAI+sqOGyAGwp562Gr0MAtpQVNVwWAADAhzOHXlwWAADAIytquCwAW8p5q+HrEIAtZUUNlwUAAPDhzKEXlwUAAPDIihouC8CWct5q+DoEYEtZUcNlAQAAfDhz6MVlAQAAPLKihssCsKWctxq+DgHYUlbUcFkAAAAfzhx6cVkAAACPrKjhsgBsKeethq9DALaUFTVcFgAAwIczh15cFgAAwCMrargsAFvKeavh6xCALWVFDZcFAADw4cyhF5cFAADwyIoaLgvAlnLeavg6BGBLWVHDZQEAAHw4c+jFZQEAADyyoobLArClnLcavg4B2FJW1HBZAAAAH84cenFZAAAAj6yo4bIAbCnnrYavQwC2lBU1XBYAAMCHM4deXBYAAMAjK2q4LABbynmr4esQgC1lRQ2XBQAA8OHMoReXBQAA8MiKGi4LwJZy3mr4OgRgS1lRw2UBAAB8OHPoxWUBAAA8sqKGywKwpZy3Gr4OAdhSVtRwWQAAAB/OHHpxWQAAAI+sqOGyAGwp562Gr0MAtpQVNVwWAADAhzOHXlwWAADAIytquCwAW8p5q+HrEIAtZUUNlwUAAPDhzKEXlwUAAPDIihouC8CWct5q+DoEYEtZUcNlAQAAfDhz6MVlAQAAPLKihssCsKWctxq+DgHYUlbUcFkAAAAfzhx6cVkAAACPrKjhsgBsKeethq9DALaUFTVcFgAAwIczh15cFgAAwCMrargsAFvKeavh6xCALWVFDZcFAADw4cyhF5cFAADwyIoaLgvAlnLeavg6BGBLWVHDZQEAAHw4c+jFZQEAADyyoobLArClnLcavg4B2FJW1HBZAAAAH84cenFZAAAAj6yo4bIAbCnnrYavQwC2lBU1XBYAAMCHM4deXBYAAMAjK9NHZNIAABLWSURBVGq4LABbynmr4esQgC1lRQ2XBQAA8OHMoReXBQAA8MiKGi4LwJZy3mr4OgRgS1lRw2UBAAB8OHPoxWUBAAA8sqKGywKwpZy3Gr4OAdhSVtRwWQAAAB/OHHpxWQAAAI+sqOGyAGwp562Gr0MAtpQVNVwWAADAhzOHXlwWAADAIytquCwAW8p5q+HrEIAtZUUNlwUAAPDhzKEXlwUAAPDIihouC8CWct5q+DoEYEtZUcNlAQAAfDhz6MVlAQAAPLKihssCsKWctxq+DgHYUlbUcFkAAAAfzhx6cVkAAACPrKjhsgBsKeethq9DALaUFTVcFgAAwIczh15cFgAAwCMrargsAFvKeavh6xCALWVFDZcFAADw4cyhF5cFAADwyIoaLgvAlnLeavg6BGBLWVHDZQEAAHw4c+jFZQEAADyyoobLArClnLcavg4B2FJW1HBZAAAAH84cenFZAAAAj6yo4bIAbCnnrYavQwC2lBU1XBYAAMCHM4deXBYAAMAjK2q4LABbynmr4esQgC1lRQ2XBQAA8OHMoReXBQAA8MiKGi4LwJZy3mr4OgRgS1lRw2UBAAB8OHPoxWUBAAA8sqKGywKwpZy3Gr4OAdhSVtRwWQAAAB/OHHpxWQAAAI+sqOGyAGwp562Gr0MAtpQVNVwWAADAhzOHXlwWAADAIytquCwAW8p5q+HrEIAtZUUNlwUAAPDhzKEXlwUAAPDIihouC8CWct5q+DoEYEtZUcNlAQAAfDhz6MVlAQAAPLKihssCsKWctxq+DgHYUlbUcFkAAAAfzhx6cVkAAACPrKjhsgBsKeethq9DALaUFTVcFgAAwIczh15cFgAAwCMrargsAFvKeavh6xCALWVFDZcFAADw4cyhF5cFAADwyIoaLgvAlnLeavg6BGBLWVHDZQEAAHw4c+jFZQEAADyyoobLArClnLcavg4B2FJW1HBZAAAAH84cenFZAAAAj6yo4bIAbCnnrYavQwC2lBU1XBYAAMCHM4deXBYAAMAjK2q4LABbynmr4esQgC1lRQ2XBQAA8OHMoReXBQAA8MiKGi4LwJZy3mr4OgRgS1lRw2UBAAB8OHPoxWUBAAA8sqKGywKwpZy3Gr4OAdhSVtRwWQAAAB/OHHpxWQAAAI+sqOGyAGwp562Gr0MAtpQVNVwWAADAhzOHXlwWAADAIytquCwAW8p5q+HrEIAtZUUNlwUAAPDhzKEXlwUAAPDIihouC8CWct5q+DoEYEtZUcNlAQAAfDhz6MVlAQAAPLKihssCsKWctxq+DgHYUlbUcFkAAAAfzhx6cVkAAACPrKjhsgBsKeethq9DALaUFTVcFgAAwIczh15cFgAAwCMrargsAFvKeavh6xCALWVFDZcFAADw4cyhF5cFAADwyIoaLgvAlnLeavg6BGBLWVHDZQEAAHw4c+jFZQEAADyyoobLArClnLcavg4B2FJW1HBZAAAAH84cenFZAAAAj6yo4bIAbCnnrYavQwC2lBU1XBYAAMCHM4deXBYAAMAjK2q4LABbynmr4esQgC1lRQ2XBQAA8OHMoReXBQAA8MiKGi4LwJZy3mr4OgRgS1lRw2UBAAB8OHPoxWUBAAA8sqKGywKwpZy3Gr4OAdhSVtRwWQAAAB/OHHpxWQAAAI+sqOGyAGwp562Gr0MAtpQVNVwWAADAhzOHXlwWAADAIytquCwAW8p5q+HrEIAtZUUNlwUAAPDhzKEXlwUAAPDIihouC8CWct5q+DoEYEtZUcNlAQAAfDhz6MVlAQAAPLKihssCsKWctxq+DgHYUlbUcFkAAAAfzhx6cVkAAACPrKjhsgBsKeethq9DALaUFTVcFgAAwIczh15cFgAAwCMrargsAFvKeavh6xCALWVFDZcFAADw4cyhF5cFAADwyIoaLgvAlnLeavg6BGBLWVHDZQEAAHw4c+jFZQEAADyyoobLArClnLcavg4B2FJW1HBZAAAAH84cenFZAAAAj6yo4bIAbCnnrYavQwC2lBU1XBYAAMCHM4deXBYAAMAjK2q4LABbynmr4esQgC1lRQ2XBQAA8OHMoReXBQAA8MiKGi4LwJZy3mr4OgRgS1lRw2UBAAB8OHPoxWUBAAA8sqKGywKwpZy3Gr4OAdhSVtRwWQAAAB/OHHpxWQAAAI+sqOGyAGwp562Gr0MAtpQVNVwWAADAhzOHXlwWAADAIytquCwAW8p5q+HrEIAtZUUNlwUAAPDhzKEXlwUAAPDIihouC8CWct5q+DoEYEtZUcNlAQAAfDhz6MVlAQAAPLKihssCsKWctxq+DgHYUlbUcFkAAAAfzhx6cVkAAACPrKjhsgBsKeethq9DALaUFTVcFgAAwIczh15cFgAAwCMrargsAFvKeavh6xCALWVFDZcFAADw4cyhF5cFAADwyIoaLgvAlnLeavg6BGBLWVHDZQEAAHw4c+jFZQEAADyyoobLArClnLcavg4B2FJW1HBZAAAAH84cenFZAAAAj6yo4bIAbCnnrYavQwC2lBU1XBYAAMCHM4deXBYAAMAjK2q4LABbynmr4esQgC1lRQ2XBQAA8OHMoReXBQAA8MiKGi4LwJZy3mr4OgRgS1lRw2UBAAB8OHPoxWUBAAA8sqKGywKwpZy3Gr4OAdhSVtRwWQAAAB/OHHpxWQAAAI+sqOGyAGwp562Gr0MAtpQVNVwWAADAhzOHXlwWAADAIytquCwAW8p5q+HrEIAtZUUNlwUAAPDhzKEXlwUAAPDIihouC8CWct5q+DoEYEtZUcNlAQAAfDhz6MVlAQAAPLKihssCsKWctxq+DgHYUlbUcFkAAAAfzhx6cVkAAACPrKjhsgBsKeethq9DALaUFTVcFgAAwIczh15cFgAAwCMrargsAFvKeavh6xCALWVFDZcFAADw4cyhF5cFAADwyIoaLgvAlnLeavg6BGBLWVHDZQEAAHw4c+jFZQEAADyyoobLArClnLcavg4B2FJW1HBZAAAAH84cenFZAAAAj6yo4bIAbCnnrYavQwC2lBU1XBYAAMCHM4deXBYAAMAjK2q4LABbynmr4esQgC1lRQ2XBQAA8OHMoReXBQAA8MiKGi4LwJZy3mr4OgRgS1lRw2UBAAB8OHPoxWUBAAA8sqKGywKwpZy3Gr4OAdhSVtRwWQAAAB/OHHpxWQAAAI+sqOGyAGwp562Gr0MAtpQVNVwWAADAhzOHXlwWAADAIytquCwAW8p5q+HrEIAtZUUNlwUAAPDhzKEXlwUAAPDIihouC8CWct5q+DoEYEtZUcNlAQAAfDhz6MVlAQAAPLKihssCsKWctxq+DgHYUlbUcFkAAAAfzhx6cVkAAACPrKjhsgBsKeethq9DALaUFTVcFgAAwIczh15cFgAAwCMrargsAFvKeavh6xCALWVFDZcFAADw4cyhF5cFAADwyIoaLgvAlnLeavg6BGBLWVHDZQEAAHw4c+jFZQEAADyyoobLArClnLcavg4B2FJW1HBZAAAAH84cenFZAAAAj6yo4bIAbCnnrYavQwC2lBU1XBYAAMCHM4deXBYAAMAjK2q4LABbynmr4esQgC1lRQ2XBQAA8OHMoReXBQAA8MiKGi4LwJZy3mr4OgRgS1lRw2UBAAB8OHPoxWUBAAA8sqKGywKwpZy3Gr4OAdhSVtRwWQAAAB/OHHpxWQAAAI+sqOGyAGwp562Gr0MAtpQVNVwWAADAhzOHXlwWAADAIytquCwAW8p5q+HrEIAtZUUNlwUAAPDhzKEXlwUAAPDIihouC8CWct5q+DoEYEtZUcNlAQAAfDhz6MVlAQAAPLKihssCsKWctxq+DgHYUlbUcFkAAAAfzhx6cVkAAACPrKjhsgBsKeethq9DALaUFTVcFgAAwIczh15cFgAAwCMrargsAFvKeavh6xCALWVFDZcFAADw4cyhF5cFAADwyIoaLgvAlnLeavg6BGBLWVHDZQEAAHw4c+jFZQEAADyyoobLArClnLcavg4B2FJW1HBZAAAAH84cenFZAAAAj6yo4bIAbCnnrYavQwC2lBU1XBYAAMCHM4deXBYAAMAjK2q4LABbynmr4esQgC1lRQ2XBQAA8OHMoReXBQAA8MiKGi4LwJZy3mr4OgRgS1lRw2UBAAB8OHPoxWUBAAA8sqKGywKwpZy3Gr4OAdhSVtRwWQAAAB/OHHpxWQAAAI+sqOGyAGwp562Gr0MAtpQVNVwWAADAhzOHXlwWAADAIytquCwAW8p5q+HrEIAtZUUNlwUAAPDhzKEXlwUAAPDIihouC8CWct5q+DoEYEtZUcNlAQAAfDhz6MVlAQAAPLKihssCsKWctxq+DgHYUlbUcFkAAAAfzhx6cVkAAACPrKjhsgBsKeethq9DALaUFTVcFgAAwIczh15cFgAAwCMrargsAFvKeavh6xCALWVFDZcFAADw4cyhF5cFAADwyIoaLgvAlnLeavg6BGBLWVHDZQEAAHw4c+jFZQEAADyyoobLArClnLcavg4B2FJW1HBZAAAAH84cenFZAAAAj6yo4bIAbCnnrYavQwC2lBU1XBYAAMCHM4deXBYAAMAjK2q4LABbynmr4esQgC1lRQ2XBQAA8OHMoReXBQAA8MiKGi4LwJZy3mr4OgRgS1lRw2UBAAB8OHPoxWUBAAA8sqKGywKwpZy3Gr4OAdhSVtRwWQAAAB/OHHpxWQAAAI+sqOGyAGwp562Gr0MAtpQVNVwWAADAhzOHXlwWAADAIytquCwAW8p5q+HrEIAtZUUNlwUAAPDhzKEXlwUAAPDIihouC8CWct5q+DoEYEtZUcNlAQAAfDhz6MVlAQAAPLKihssCsKWctxq+DgHYUlbUcFkAAAAfzhx6cVkAAACPrKjhsgBsKeethq9DALaUFTVcFgAAwIczh15cFgAAwCMrargsAFvKeavh6xCALWVFDZcFAADw4cyhF5cFAADwyIoaLgvAlnLeavg6BGBLWVHDZQEAAHw4c+jFZQEAADyyoobLArClnLcavg4B2FJW1HBZAAAAH84cenFZAAAAj6yo4bIAbCnnrYavQwC2lBU1XBYAAMCHM4deXBYAAMAjK2q4LABbynmr4esQgC1lRQ2XBQAA8OHMoReXBQAA8MiKGi4LwJZy3mr4OgRgS1lRw2UBAAB8OHPoxWUBAAA8sqKGywKwpZy3Gr4OAdhSVtRwWQAAAB/OHHpxWQAAAI+sqOGyAGwp562Gr0MAtpQVNVwWAADAhzOHXlwWAADAIytquCwAW8p5q+HrEIAtZUUNlwUAAPDhzKEXlwUAAPDIihouC8CWct5q+DoEYEtZUcNlAQAAfDhz6MVlAQAAPLKihssCsKWctxq+DgHYUlbUcFkAAAAfzhx6cVkAAACPrKjhsgBsKeethq9DALaUFTVcFgAAwIczh15cFgAAwCMrargsAFvKeavh6xCALWVFDZcFAADw4cyhF5cFAADwyIoaLgvAlnLeavg6BGBLWVHDZQEAAHw4c+jFZQEAADyyoobLArClnLcavg4B2FJW1HBZAAAAH84cenFZAAAAj6yo4bIAbCnnrYavQwC2lBU1XBYAAMCHM4deXBYAAMAjK2q4LABbynmr4esQgC1lRQ2XBQAA8OHMoReXBQAA8MiKGi4LwJZy3mr4OgRgS1lRw2UBAAB8OHPoxWUBAAA8sqKGywKwpZy3Gr4OAdhSVtRwWQAAAB/OHHpxWQAAAI+sqOGyAGwp562Gr0MAtpQVNVwWAADAhzOHXlwWAADAIytquCwAW8p5q+HrEIAtZUUNlwUAAPDhzKEXlwUAAPDIihouC8CWct5q+DoEYEtZUcNlAQAAfDhz6MVlAQAAPLKihssCsKWctxq+DgHYUlbUcFkAAAAfzhx6cVkAAACPrKjhsgBsKeethq9DALaUFTVcFgAAwIczh15cFgAAwCMrargsAFvKeavh6xCALWVFDZcFAADw4cyhF5cFAADwyIoaLgvAlnLeavg6BGBLWVHDZQEAAHw4c+jFZQEAADyyoobLArClnLcavg4B2FJW1HBZAAAAH84cenFZAAAAj6yo4bIAbCnnrYavQwC2lBU1XBYAAMCHM4deXBYAAMAjK2q4LABbynmr4esQgC1lRQ2XBQAA8OHMoReXBQAA8MiKGi4LwJZy3mr4OgRgS1lRw2UBAAB8OHPoxWUBAAA8sqKGywKwpZy3Gr4OAdhSVtRwWQAAAB/OHHpxWQAAAI+sqOGyAGwp562Gr0MAtpQVNVwWAADAhzOHXlwWAADAIytquCwAW8p5q+HrEIAtZUUNlwUAAPDhzKEXlwUAAPDIihouC8CWct5q+DoEYEtZUcNlAQAAfDhzCAAAAAAAAAAA4F+cOQQAAAAAAAAAAPAvzhwCAAAAAAAAAAD4F2cOAQAAAAAAAAAA/IszhwAAAAAAAAAAAP7lBzZYppaDkMxRAAAAAElFTkSuQmCC;fontSize=64;" vertex="1" parent="1">
          <mxGeometry x="230" y="70" width="509.56" height="330" as="geometry" />
        </mxCell>
        <mxCell id="5saQMGfEtWEiBKBCJOgw-3" value="&lt;font style=&quot;font-size: 64px;&quot;&gt;A&lt;/font&gt;" style="text;html=1;strokeColor=none;fillColor=none;align=center;verticalAlign=middle;whiteSpace=wrap;rounded=0;fontColor=#007FFF;fontSize=64;" vertex="1" parent="1">
          <mxGeometry x="240" y="110" width="150" height="30" as="geometry" />
        </mxCell>
        <mxCell id="5saQMGfEtWEiBKBCJOgw-4" value="&lt;font style=&quot;font-size: 64px;&quot;&gt;B&lt;/font&gt;" style="text;html=1;strokeColor=none;fillColor=none;align=center;verticalAlign=middle;whiteSpace=wrap;rounded=0;fontColor=#007FFF;fontSize=64;" vertex="1" parent="1">
          <mxGeometry x="240" y="220" width="150" height="30" as="geometry" />
        </mxCell>
        <mxCell id="5saQMGfEtWEiBKBCJOgw-5" value="&lt;font style=&quot;font-size: 64px;&quot;&gt;C&lt;/font&gt;" style="text;html=1;strokeColor=none;fillColor=none;align=center;verticalAlign=middle;whiteSpace=wrap;rounded=0;fontColor=#007FFF;fontSize=64;" vertex="1" parent="1">
          <mxGeometry x="240" y="340" width="150" height="30" as="geometry" />
        </mxCell>
        <mxCell id="5saQMGfEtWEiBKBCJOgw-6" value="&lt;font style=&quot;font-size: 64px;&quot;&gt;D&lt;/font&gt;" style="text;html=1;strokeColor=none;fillColor=none;align=center;verticalAlign=middle;whiteSpace=wrap;rounded=0;fontColor=#007FFF;fontSize=64;" vertex="1" parent="1">
          <mxGeometry x="409.78" y="110" width="150" height="30" as="geometry" />
        </mxCell>
        <mxCell id="5saQMGfEtWEiBKBCJOgw-7" value="&lt;font style=&quot;font-size: 64px;&quot;&gt;E&lt;/font&gt;" style="text;html=1;strokeColor=none;fillColor=none;align=center;verticalAlign=middle;whiteSpace=wrap;rounded=0;fontColor=#007FFF;fontSize=64;" vertex="1" parent="1">
          <mxGeometry x="409.78" y="220" width="150" height="30" as="geometry" />
        </mxCell>
        <mxCell id="5saQMGfEtWEiBKBCJOgw-8" value="&lt;span style=&quot;font-size: 64px;&quot;&gt;F&lt;/span&gt;" style="text;html=1;strokeColor=none;fillColor=none;align=center;verticalAlign=middle;whiteSpace=wrap;rounded=0;fontColor=#007FFF;fontSize=64;" vertex="1" parent="1">
          <mxGeometry x="409.78" y="340" width="150" height="30" as="geometry" />
        </mxCell>
        <mxCell id="5saQMGfEtWEiBKBCJOgw-9" value="&lt;font style=&quot;font-size: 64px;&quot;&gt;G&lt;/font&gt;" style="text;html=1;strokeColor=none;fillColor=none;align=center;verticalAlign=middle;whiteSpace=wrap;rounded=0;fontColor=#007FFF;fontSize=64;" vertex="1" parent="1">
          <mxGeometry x="580" y="110" width="150" height="30" as="geometry" />
        </mxCell>
        <mxCell id="5saQMGfEtWEiBKBCJOgw-10" value="&lt;font style=&quot;font-size: 64px;&quot;&gt;H&lt;/font&gt;" style="text;html=1;strokeColor=none;fillColor=none;align=center;verticalAlign=middle;whiteSpace=wrap;rounded=0;fontColor=#007FFF;fontSize=64;" vertex="1" parent="1">
          <mxGeometry x="580" y="220" width="150" height="30" as="geometry" />
        </mxCell>
        <mxCell id="5saQMGfEtWEiBKBCJOgw-11" value="&lt;font style=&quot;font-size: 64px;&quot;&gt;I&lt;/font&gt;" style="text;html=1;strokeColor=none;fillColor=none;align=center;verticalAlign=middle;whiteSpace=wrap;rounded=0;fontColor=#007FFF;fontSize=64;" vertex="1" parent="1">
          <mxGeometry x="580" y="340" width="150" height="30" as="geometry" />
        </mxCell>
      </root>
    </mxGraphModel>
  </diagram>
</mxfile>
